<svg width="14" height="14" viewBox="0 0 14 14" version="1.1" xmlns="http://www.w3.org/2000/svg" xmlns:xlink="http://www.w3.org/1999/xlink">
<g id="Canvas" transform="translate(2222 265)">
<g id="Fill 1" opacity="0.1">
  <use xlink:href="#path1_fill" transform="translate(-2222 -260)"/>
</g>

<g id="Group 5" opacity="0.1">
  <use xlink:href="#path3_fill" transform="translate(-2217 -265)"/>
</g>
</g>

<defs>
  <path id="path1_fill" fill-rule="evenodd" d="M 6.1353 5.32689C 6.5431 5.56805 6.98457 5.69476 7.4611 5.70457C 7.6728 5.70891 7.88647 5.70053 8.09644 5.67668C 8.20829 5.66396 8.31414 5.60575 8.4251 5.56728C 8.40951 5.58506 8.3922 5.6086 8.37087 5.62852C 7.49585 6.44365 6.631 7.26852 5.74117 8.06937C 5.22912 8.53024 4.61186 8.8308 3.89884 8.9452C 3.1468 9.06602 2.42688 8.99384 1.74536 8.66075C 0.988842 8.29109 0.476534 7.72576 0.178156 6.98306C 0.00172284 6.54407 -0.0251062 6.08731 0.0181397 5.63328C 0.0676458 5.11504 0.247337 4.62301 0.571713 4.1933C 0.765394 3.9368 0.979068 3.68873 1.21478 3.46517C 2.06884 2.65516 2.93804 1.859 3.79746 1.05387C 4.33162 0.553464 4.96121 0.206343 5.70335 0.0711329C 6.53857 -0.0810225 7.34651 0.000376761 8.09485 0.417897C 8.37489 0.574156 8.6495 0.738084 8.83546 0.990309C 9.18839 1.46901 8.94769 2.10766 8.3602 2.27183C 8.02956 2.36417 7.73457 2.29644 7.47663 2.07835C 6.97671 1.65571 6.40551 1.5887 5.78524 1.80085C 5.51108 1.89462 5.28258 2.05492 5.07734 2.24614C 4.20904 3.0552 3.3406 3.8642 2.47083 4.67201C 2.15859 4.96199 1.90831 5.28527 1.83779 5.70142C 1.77046 6.09831 1.83281 6.4701 2.11068 6.79475C 2.33751 7.05982 2.62395 7.23837 2.98365 7.29474C 3.33786 7.35022 3.68159 7.30925 4.00711 7.1546C 4.30996 7.0107 4.55475 6.80194 4.79091 6.57998C 5.23787 6.16009 5.68821 5.74328 6.1353 5.32689Z"/>
  <path id="path2_fill" fill-rule="evenodd" d="M 0 0L 9 0L 9 9L 0 9L 0 0Z"/>
  <path id="path3_fill" fill-rule="evenodd" d="M 0.557563 3.42714C 0.690736 3.30732 0.825696 3.18915 0.956761 3.06731C 1.672 2.40225 2.38902 1.73874 3.09998 1.06976C 3.6015 0.597835 4.18643 0.258584 4.87772 0.0937784C 5.29736 -0.00629512 5.72542 -0.0206338 6.1595 0.0241672C 6.64946 0.0747394 7.09643 0.227765 7.50681 0.47075C 7.92427 0.71778 8.25781 1.04507 8.5223 1.43787C 8.74598 1.7701 8.89122 2.13053 8.95548 2.51042C 9.03736 2.99395 9.00805 3.47861 8.85297 3.95339C 8.70268 4.4133 8.485 4.84459 8.12892 5.19033C 7.31468 5.98074 6.4802 6.75307 5.65133 7.53033C 5.30802 7.85227 4.97972 8.19039 4.56596 8.43974C 4.09816 8.7217 3.59256 8.9053 3.03694 8.97063C 2.33352 9.05339 1.66146 8.96516 1.03181 8.65607C 0.704085 8.49519 0.395073 8.30409 0.171011 8.02106C -0.210175 7.53944 0.0905969 6.87718 0.633059 6.73474C 0.960146 6.64883 1.25721 6.69357 1.50599 6.91139C 1.87409 7.2335 2.30995 7.36273 2.80208 7.30698C 3.14494 7.26813 3.46628 7.14759 3.71672 6.91978C 4.56475 6.14828 5.40645 5.37066 6.24585 4.59096C 6.46046 4.39152 6.67494 4.18811 6.85908 3.96475C 7.25751 3.48146 7.3272 2.70307 6.8799 2.19205C 6.43178 1.68008 5.73449 1.56948 5.1258 1.79033C 4.84023 1.89397 4.60109 2.06199 4.38623 2.2594C 3.90112 2.70515 3.42036 3.15512 2.94094 3.60629C 2.87438 3.66888 2.8381 3.6593 2.75251 3.6211C 2.51351 3.51425 2.26505 3.41846 2.01026 3.35182C 1.80645 3.29851 1.58845 3.28709 1.37557 3.27019C 1.11893 3.24996 0.8142 3.32344 0.557563 3.42714Z"/>
</defs>
</svg>
