<svg width="14" height="12" viewBox="0 0 14 12" version="1.1" xmlns="http://www.w3.org/2000/svg" xmlns:xlink="http://www.w3.org/1999/xlink">
<g id="Canvas" fill="none">
<g id="fa-close &#208;&#186;&#208;&#190;&#208;&#191;&#208;&#184;&#209;&#143;">
<path fill-rule="evenodd" clip-rule="evenodd" d="M 13.7229 9.96779L 10.7466 7.00307L 13.7229 4.03836C 13.9118 3.85038 14.0065 3.62172 14.0065 3.35271C 14.0065 3.08402 13.9118 2.85536 13.7229 2.66706L 12.3461 1.29557C 12.157 1.10743 11.9275 1.01328 11.6578 1.01328C 11.3876 1.01328 11.1581 1.10743 10.9694 1.29557L 7.99286 4.2603L 5.01658 1.29557C 4.82746 1.10743 4.59792 1.01328 4.32818 1.01328C 4.05802 1.01328 3.82848 1.10743 3.63979 1.29557L 2.2628 2.66706C 2.07389 2.85536 1.97944 3.08402 1.97944 3.35271C 1.97944 3.62172 2.07389 3.85038 2.2628 4.03836L 5.2393 7.00307L 2.2628 9.96779C 2.07389 10.1561 1.97944 10.3848 1.97944 10.6536C 1.97944 10.9226 2.07389 11.1513 2.2628 11.3393L 3.63979 12.7107C 3.82848 12.8989 4.05802 12.993 4.32818 12.993C 4.59792 12.993 4.82746 12.8989 5.01658 12.7107L 7.99286 9.74602L 10.9694 12.7107C 11.1581 12.8989 11.3876 12.993 11.6578 12.993C 11.9275 12.993 12.157 12.8989 12.3461 12.7107L 13.7229 11.3393C 13.9118 11.1513 14.0065 10.9226 14.0065 10.6536C 14.0065 10.3848 13.9118 10.1561 13.7229 9.96779Z" transform="translate(-1 -1)" fill="#969696"/>
</g>
</g>
</svg>

