<svg width="19" height="14" viewBox="0 0 19 14" version="1.1" xmlns="http://www.w3.org/2000/svg" xmlns:xlink="http://www.w3.org/1999/xlink">
<g id="Canvas" fill="none">
<g id="Page 1">
<g id="Group 3">
<mask id="mask0" mask-type="alpha" maskUnits="userSpaceOnUse" x="0" y="0" width="19" height="14">
<g id="Clip 2">
<path fill-rule="evenodd" clip-rule="evenodd" d="M 0 0L 17.9466 0L 17.9466 14L 0 14L 0 0Z" transform="translate(0.712158 0)" fill="white"/>
</g>
</mask>
<g mask="url(#mask0)">
<g id="Fill 1">
<path fill-rule="evenodd" clip-rule="evenodd" d="M 14.9002 4.99224C 14.9023 5.33255 15.1808 5.59911 15.5306 5.59553C 15.8789 5.59195 16.1572 5.31676 16.153 4.98026C 16.1487 4.64375 15.8623 4.37023 15.5183 4.37406C 15.1724 4.37792 14.8981 4.65228 14.9002 4.99224ZM 8.98187 3.50103C 6.51467 3.48954 4.50849 5.43697 4.48843 7.86291C 4.46853 10.2634 6.49578 12.248 8.97143 12.2515C 11.4384 12.2549 13.4462 10.2989 13.4587 7.87984C 13.4711 5.47846 11.4613 3.5126 8.98187 3.50103ZM 0 12.491L 0 4.13573C 0.00931732 4.11513 0.0223902 4.09538 0.0274073 4.07386C 0.238523 3.17104 0.934427 2.62666 1.88041 2.62594C 2.55309 2.62543 3.22577 2.62714 3.89842 2.62535C 4.24853 2.62443 4.55448 2.4182 4.66594 2.10103C 4.84343 1.59592 5.01237 1.08795 5.18814 0.582244C 5.21687 0.499557 5.25434 0.417681 5.3011 0.343405C 5.41425 0.163725 5.60817 0.0881637 5.79107 0L 12.1555 0C 12.4123 0.112084 12.6489 0.245545 12.7449 0.528144C 12.9126 1.02178 13.0827 1.51465 13.2476 2.00915C 13.3843 2.41915 13.667 2.62518 14.1055 2.62585C 14.821 2.62703 15.5373 2.60962 16.2519 2.63541C 16.8757 2.6579 17.3604 2.95867 17.6758 3.48329C 17.7962 3.68356 17.8581 3.91723 17.9466 4.13573L 17.9466 12.491C 17.9359 12.5209 17.9224 12.5501 17.9148 12.5808C 17.7875 13.0926 17.5155 13.5057 17.0297 13.7553C 16.8305 13.8576 16.6095 13.9196 16.3985 14L 1.54811 14C 1.52245 13.9903 1.49757 13.9773 1.47102 13.9713C 0.937838 13.8525 0.511191 13.5843 0.251568 13.1068C 0.146038 12.9127 0.0825945 12.6969 0 12.491Z" transform="translate(0.712158 0)" fill="white" fill-opacity="0.7"/>
</g>
</g>
</g>
<g id="Fill 4">
<path fill-rule="evenodd" clip-rule="evenodd" d="M 2.99799 5.99996C 1.35468 6.00828 0.00517716 4.66309 1.49437e-05 3.01166C -0.00514727 1.36161 1.32779 0.0126521 2.97587 8.62383e-05C 4.62042 -0.0124476 5.9798 1.3429 5.98219 2.99756C 5.98461 4.64966 4.65082 5.99158 2.99799 5.99996Z" transform="translate(6.69434 5)" fill="white" fill-opacity="0.7"/>
</g>
</g>
</g>
</svg>

