<?xml version="1.0" encoding="UTF-8"?>
<svg width="14px" height="14px" viewBox="0 0 14 14" version="1.1" xmlns="http://www.w3.org/2000/svg" xmlns:xlink="http://www.w3.org/1999/xlink">
    <!-- Generator: Sketch 49 (51002) - http://www.bohemiancoding.com/sketch -->
    <title>card_phone_icon</title>
    <desc>Created with Sketch.</desc>
    <defs></defs>
    <g id="card_phone_icon" stroke="none" stroke-width="1" fill="none" fill-rule="evenodd">
        <g id="Page-1-Copy" fill="#CCCCCC">
            <path d="M2.69944727,0 C2.81077369,0.124783462 2.93468332,0.240479053 3.03132934,0.37574852 C3.6870542,1.29397304 4.25714334,2.26410329 4.75295662,3.27740093 C4.88420646,3.54566789 4.88071112,3.56314457 4.65666014,3.76342727 C4.36532397,4.02365496 4.05808401,4.26658075 3.77338897,4.53379912 C3.29365423,4.98399827 3.31707298,4.94240378 3.51316128,5.54325188 C3.88139483,6.67276941 4.4929037,7.66596887 5.27166435,8.55815314 C5.88352275,9.25949213 6.57839536,9.85841779 7.42339262,10.2664982 C7.83898795,10.4673052 8.27223474,10.6088662 8.73589093,10.6497616 C8.97916625,10.6710832 9.18731346,10.6249448 9.36714845,10.4400415 C9.64258085,10.1569194 9.92814972,9.88271037 10.2207093,9.6170649 C10.5116959,9.35281757 10.5365128,9.35072037 10.8766089,9.53597313 C11.8551279,10.068837 12.7939749,10.6639178 13.6791686,11.3420128 C13.7368416,11.386054 13.7913688,11.4346391 13.8437988,11.484972 C13.9850104,11.620591 13.9949721,11.6567677 13.8467699,11.7913381 C13.5475692,12.0625761 13.2488928,12.337659 12.9266229,12.5795361 C12.3928852,12.9802763 11.8376513,13.3514809 11.2977968,13.744007 C11.0178204,13.9476103 10.713901,13.9804664 10.3813199,13.9486589 C9.4662412,13.8612755 8.62299161,13.5526374 7.81574398,13.1328477 C6.62103845,12.5117266 5.5726127,11.6889248 4.59619085,10.7700012 C3.39973765,9.64432852 2.32789315,8.41414534 1.46681736,7.00937018 C0.848842121,6.00149031 0.351980241,4.94083088 0.0971703149,3.77863197 C0.0602945299,3.61068112 0.0321570826,3.44098261 0,3.27215792 L0,3.05404901 C0.153794743,2.83663917 0.298326848,2.61223866 0.463131896,2.40356716 C1.13109043,1.55787084 1.78873772,0.702038048 2.61765643,0 L2.69944727,0 Z" id="Fill-1"></path>
            <path d="M7.50699835,0 C7.75778864,0.0354776509 8.00945277,0.0650132322 8.25884492,0.10713202 C10.8787733,0.551389107 13.0334726,2.57553764 13.6416609,5.15928933 C13.7564827,5.64706333 13.8204473,6.14025511 13.8314576,6.65948714 C13.4349119,6.71558726 13.0434343,6.77081356 12.6421699,6.82761275 C12.6266156,5.26432414 12.1049369,3.92089211 11.0075764,2.82423073 C9.91039074,1.72774412 8.56748301,1.20519153 7,1.18998682 C7.0609936,0.786100857 7.12041429,0.393050428 7.17983499,0 L7.50699835,0 Z" id="Fill-3"></path>
            <path d="M7,4.21234255 C7.05802256,3.80303881 7.11272456,3.41680429 7.16742655,3.03126883 C9.33593243,2.72979618 11.5222645,4.6468127 11.2646583,7.11749029 C10.8777247,7.17236705 10.4879949,7.22776811 10.0755453,7.28648974 C10.2062709,6.38696526 9.99235635,5.5924756 9.34903993,4.94723675 C8.70450015,4.30042499 7.91228245,4.07934505 7,4.21234255" id="Fill-5"></path>
        </g>
    </g>
</svg>