<svg width="15" height="15" viewBox="0 0 15 15" version="1.1" xmlns="http://www.w3.org/2000/svg" xmlns:xlink="http://www.w3.org/1999/xlink">
<g id="Canvas" fill="none">
<g id="Page 1">
<g id="Group 3">
<mask id="mask0" mask-type="alpha" maskUnits="userSpaceOnUse" x="0" y="3" width="12" height="12">
<g id="Clip 2">
<path fill-rule="evenodd" clip-rule="evenodd" d="M 0 0L 11.9278 0L 11.9278 11.8702L 0 11.8702L 0 0Z" transform="translate(0 3.02637)" fill="white"/>
</g>
</mask>
<g mask="url(#mask0)">
<g id="Fill 1">
<path fill-rule="evenodd" clip-rule="evenodd" d="M 0.000139587 11.3095C -0.00286041 11.1875 0.0431396 11.0795 0.0761396 10.9675C 0.36314 9.98852 0.65214 9.00952 0.94114 8.02952C 1.08514 7.54152 1.22914 7.05352 1.37314 6.56552C 1.41514 6.42352 1.50014 6.31352 1.62714 6.23652C 1.65014 6.22252 1.67114 6.20552 1.69014 6.18652C 2.13914 5.74252 2.58714 5.29752 3.03514 4.85252C 3.77714 4.11752 4.52014 3.38152 5.26314 2.64552C 5.61714 2.29352 5.97314 1.94152 6.32814 1.58952C 6.85514 1.06552 7.38414 0.542517 7.91014 0.0185172C 7.93914 -0.00948285 7.95214 -0.00348285 7.97714 0.0215172C 8.20814 0.253517 8.43914 0.485517 8.67214 0.716517C 8.70014 0.744517 8.70114 0.757517 8.67214 0.785517C 7.57314 1.87952 6.47614 2.97452 5.37814 4.06852L 2.43114 7.00752C 2.40714 7.02952 2.39614 7.05652 2.38814 7.08452C 2.20614 7.70752 2.02414 8.33052 1.84214 8.95352C 1.77214 9.19152 1.70214 9.42952 1.63214 9.66752C 1.62414 9.69452 1.62814 9.71252 1.64914 9.73352C 1.81314 9.89552 1.97614 10.0585 2.13814 10.2215C 2.15614 10.2395 2.17214 10.2505 2.20014 10.2425C 3.03114 9.99852 3.86314 9.75752 4.69614 9.51552C 4.72214 9.50752 4.74014 9.49352 4.75914 9.47552C 5.41114 8.82052 6.06414 8.16652 6.71714 7.51352C 7.81814 6.40852 8.91914 5.30452 10.0211 4.19952C 10.3651 3.85352 10.7091 3.50852 11.0521 3.16252C 11.0781 3.13552 11.0921 3.13552 11.1181 3.16252C 11.3811 3.42652 11.6441 3.68952 11.9081 3.95252C 11.9371 3.97952 11.9321 3.99252 11.9061 4.01752C 11.3981 4.51952 10.8911 5.02252 10.3841 5.52552C 9.64614 6.25552 8.91014 6.98652 8.17314 7.71652C 7.45114 8.43252 6.72914 9.14752 6.00714 9.86352C 5.96214 9.90852 5.91614 9.95352 5.87114 9.99752C 5.80314 10.0645 5.74114 10.1325 5.69714 10.2215C 5.62514 10.3675 5.49714 10.4515 5.34014 10.4945C 5.09214 10.5625 4.84514 10.6365 4.59814 10.7085C 3.83114 10.9345 3.06514 11.1595 2.30014 11.3855C 1.78614 11.5375 1.27114 11.6885 0.75814 11.8415C 0.47714 11.9245 0.20714 11.8245 0.0701396 11.5815C 0.0231396 11.4965 -0.000860413 11.4045 0.000139587 11.3095Z" transform="translate(0 3.02637)" fill="#A3A3A3"/>
</g>
</g>
</g>
<g id="Fill 4">
<path fill-rule="evenodd" clip-rule="evenodd" d="M 1.056 7.42326C 1.028 7.22826 0.998 7.03326 0.969 6.83826C 0.958 6.76526 0.947 6.69326 0.938 6.62026C 0.934 6.58926 0.921 6.57626 0.889 6.56926C 0.602 6.50926 0.316 6.44726 0.03 6.38526C 0.024 6.38426 0.018 6.38126 0 6.37326C 0.095 6.28126 0.187 6.19526 0.276 6.10626C 1.363 5.01826 2.448 3.93026 3.534 2.84126C 4.47 1.90226 5.407 0.963256 6.342 0.023256C 6.373 -0.00874396 6.388 -0.00674395 6.418 0.023256C 6.75 0.358256 7.083 0.691256 7.418 1.02326C 7.447 1.05226 7.446 1.06526 7.417 1.09326C 6.989 1.51826 6.561 1.94526 6.133 2.37226L 2.755 5.73926C 2.202 6.29126 1.649 6.84326 1.096 7.39526C 1.086 7.40526 1.078 7.41826 1.07 7.42926C 1.066 7.42726 1.061 7.42526 1.056 7.42326Z" transform="translate(2.94409 4.42676)" fill="#A3A3A3"/>
</g>
<g id="Group 8">
<mask id="mask1" mask-type="alpha" maskUnits="userSpaceOnUse" x="10" y="0" width="5" height="5">
<g id="Clip 7">
<path fill-rule="evenodd" clip-rule="evenodd" d="M 0 0L 4.79628 0L 4.79628 4.8275L 0 4.8275L 0 0Z" transform="translate(10.0984 0)" fill="white"/>
</g>
</mask>
<g mask="url(#mask1)">
<g id="Fill 6">
<path fill-rule="evenodd" clip-rule="evenodd" d="M 3.82263 4.82752C 3.63763 4.64252 3.45263 4.45952 3.26863 4.27552C 2.80163 3.80652 2.33563 3.33752 1.86863 2.86852C 1.25263 2.25052 0.636627 1.63152 0.0206267 1.01452C -0.0073733 0.985522 -0.0063733 0.972522 0.0206267 0.944522C 0.220627 0.742522 0.412627 0.531522 0.619627 0.336522C 0.895627 0.0775217 1.23363 -0.0234783 1.60963 0.00452173C 1.96863 0.0315217 2.26563 0.185522 2.51863 0.440522C 3.13863 1.06352 3.76063 1.68452 4.38363 2.30552C 4.60263 2.52452 4.74263 2.78452 4.78263 3.09152C 4.83763 3.50352 4.72663 3.87052 4.44763 4.17952C 4.24663 4.40152 4.03163 4.61252 3.82263 4.82752Z" transform="translate(10.0984 0)" fill="#A3A3A3"/>
</g>
</g>
</g>
<g id="Fill 9">
<path fill-rule="evenodd" clip-rule="evenodd" d="M 0.895639 0C 0.902639 0.006 0.907639 0.01 0.911639 0.014C 0.919639 0.021 0.927639 0.03 0.935639 0.038C 2.24864 1.351 3.56164 2.664 4.87464 3.977C 4.89164 3.995 4.91764 4.005 4.88264 4.038C 4.59664 4.299 4.31064 4.562 4.02664 4.827C 3.99264 4.859 3.97364 4.857 3.94064 4.824C 2.63464 3.517 1.32964 2.21 0.0216393 0.905C -0.00836071 0.875 -0.00636071 0.862 0.0226393 0.834C 0.303639 0.566 0.583639 0.297 0.863639 0.028C 0.873639 0.019 0.884639 0.01 0.895639 0Z" transform="translate(8.53711 1.50879)" fill="#A3A3A3"/>
</g>
</g>
</g>
</svg>

