<svg width="17" height="11" viewBox="0 0 17 11" version="1.1" xmlns="http://www.w3.org/2000/svg" xmlns:xlink="http://www.w3.org/1999/xlink">
<g id="Canvas" fill="none">
<g id="fa-check &#208;&#186;&#208;&#190;&#208;&#191;&#208;&#184;&#209;&#143;">
<path fill-rule="evenodd" clip-rule="evenodd" d="M 14.7353 1.51598L 13.4187 0.258843C 13.2379 0.0862809 13.0184 0 12.7603 0C 12.5021 0 12.2826 0.0862809 12.1019 0.258843L 5.75092 6.33196L 2.90438 3.60509C 2.72357 3.43253 2.50424 3.34625 2.24599 3.34625C 1.98795 3.34625 1.76841 3.43253 1.58781 3.60509L 0.271016 4.86223C 0.090193 5.0348 0 5.24443 0 5.49081C 0 5.73734 0.090193 5.94681 0.271016 6.11937L 3.77572 9.46547L 5.09251 10.7226C 5.27313 10.8953 5.49265 10.9815 5.75092 10.9815C 6.00896 10.9815 6.22849 10.8953 6.4091 10.7226L 7.72589 9.46547L 14.7353 2.77312C 14.9159 2.60073 15.0063 2.39109 15.0063 2.14456C 15.0063 1.89818 14.9159 1.68854 14.7353 1.51598Z" transform="translate(0.996582 0.0185547)" fill="#969696"/>
</g>
</g>
</svg>

