<?xml version="1.0" encoding="UTF-8"?>
<svg width="17px" height="14px" viewBox="0 0 17 14" version="1.1" xmlns="http://www.w3.org/2000/svg" xmlns:xlink="http://www.w3.org/1999/xlink">

<path d="M3.012211,0.353184 C3.243859,0.580688 3.359588,0.85528 3.359588,1.176784 C3.359588,1.6136 3.16176,1.947248 2.766503,2.177712 L2.766503,13.69784 C2.766503,13.776576 2.737357,13.844816 2.678647,13.902544 C2.619937,13.960128 2.550378,13.988992 2.469951,13.988992 L1.877075,13.988992 C1.796667,13.988992 1.727108,13.960128 1.668607,13.902544 C1.609688,13.844816 1.580542,13.776576 1.580542,13.69784 L1.580542,2.177712 C1.185076,1.947248 0.987457,1.6136 0.987457,1.176784 C0.987457,0.85528 1.103395,0.580688 1.335043,0.353184 C1.56671,0.125824 1.846029,0.012 2.173627,0.012 C2.501016,0.012 2.780544,0.125824 3.012211,0.353184 Z M16.823843,1.34968 C16.941054,1.464992 16.999764,1.601456 16.999764,1.759104 L16.999764,8.70208 C16.999764,8.853808 16.96127,8.970608 16.884054,9.052448 C16.80661,9.134304 16.684934,9.217792 16.517943,9.302768 C15.189653,10.006464 14.049862,10.358304 13.098532,10.358304 C12.7218,10.358304 12.340147,10.291552 11.954257,10.158032 C11.568158,10.024672 11.232903,9.879008 10.94891,9.721216 C10.664708,9.563568 10.307736,9.41792 9.878678,9.2844 C9.449164,9.15104 9.009029,9.084272 8.558254,9.084272 C7.372084,9.084272 5.938724,9.527168 4.258573,10.412768 C4.153275,10.467392 4.051378,10.494624 3.952673,10.494624 C3.792066,10.494624 3.652948,10.437216 3.535737,10.321888 C3.418298,10.206752 3.359588,10.070112 3.359588,9.912304 L3.359588,3.160416 C3.359588,2.966368 3.45531,2.799552 3.646982,2.659968 C3.776752,2.575152 4.02075,2.444752 4.378995,2.268752 C5.836827,1.540768 7.137225,1.176784 8.280018,1.176784 C8.94118,1.176784 9.558946,1.264704 10.133297,1.440544 C10.707895,1.61672 11.384371,1.8836 12.162744,2.24136 C12.397375,2.356672 12.669246,2.41424 12.978129,2.41424 C13.311902,2.41424 13.674612,2.350592 14.067095,2.223312 C14.459369,2.095696 14.799089,1.953312 15.086274,1.79552 C15.373459,1.637872 15.64533,1.495168 15.901659,1.367888 C16.158007,1.240432 16.32648,1.176784 16.406679,1.176784 C16.567514,1.176784 16.706423,1.234528 16.823843,1.34968 Z" id="Combined-shape-292" fill="#A3A3A3"></path>
</svg>
