<?xml version="1.0" encoding="UTF-8"?>
<svg width="15px" height="11px" viewBox="0 0 15 11" version="1.1" xmlns="http://www.w3.org/2000/svg" xmlns:xlink="http://www.w3.org/1999/xlink">
    <g id="by_list_icon" stroke="none" stroke-width="1" fill="none" fill-rule="evenodd">
        <g id="Page-1" fill="#969696">
            <path d="M15,2.14300499 C14.9750502,2.22575095 14.9561334,2.31154422 14.9243326,2.39053965 C14.7592959,2.80028453 14.4756455,2.99906237 14.0840157,2.99917957 C13.1017713,2.99964839 12.1194246,3 11.1371802,3 C9.40357916,3 7.66987586,3 5.93617256,2.99906237 C5.46325143,2.99871076 5.12653159,2.71179558 5.02366485,2.22621977 C4.90372183,1.66000767 5.25353009,1.06660426 5.76050154,1.02206677 C6.12963565,0.989601286 6.50224638,1.00624424 6.87322105,1.00612704 C9.22259097,1.00518941 11.5718586,1.01269046 13.9210241,1.00003243 C14.4399591,0.99721954 14.8403827,1.17654153 15,1.86277044 L15,2.14300499 Z" id="Fill-1"></path>
            <path d="M15,6.17961651 C14.9600008,6.28870311 14.9309476,6.40543046 14.8781609,6.50558324 C14.7020007,6.83966094 14.4400108,7.00035207 14.0982272,6.99999942 C12.4950869,6.99811862 10.8918442,6.99941167 9.2886016,6.99941167 C8.15194841,6.99941167 7.01519292,7.00082227 5.87843743,6.99811862 C5.48806136,6.99717822 5.17318254,6.73739225 5.04847907,6.32690692 C4.9284814,5.93205577 5.0356916,5.4978253 5.32090347,5.22910552 C5.49685914,5.06335973 5.70145876,4.99988261 5.92662064,5.00000016 C8.23184456,5.00105811 10.5369662,5.00058791 12.8421901,5.00047036 C13.2452514,5.00047036 13.6483126,5.00023526 14.0513739,5.00070546 C14.5407762,5.00129322 14.8329444,5.25144006 14.9810745,5.79499223 C14.9850642,5.80956845 14.9935551,5.82238143 15,5.8361348 L15,6.17961651 Z" id="Fill-3"></path>
            <path d="M15,10.1794485 C14.9665459,10.2748501 14.941174,10.3753037 14.8982055,10.4644783 C14.7253082,10.8237614 14.4570618,10.9997608 14.0989906,10.9994083 C13.0172063,10.9984684 11.9353198,10.9991733 10.8536378,10.9991733 C9.23771366,10.9991733 7.6217895,10.9984684 6.00586533,10.9999958 C5.81414378,11.0002307 5.627026,10.9910666 5.45361724,10.8795689 C5.1016844,10.6536365 4.92888947,10.2005967 5.02741021,9.75143399 C5.12439635,9.30896822 5.4698839,9.00373029 5.89107794,9.00220293 C6.87781985,8.99867824 7.86456177,9.00044059 8.85130369,9.00044059 C10.544162,9.00055808 12.2370203,9.00079305 13.9298786,9.00102803 C14.5582424,9.00114552 14.780042,9.17432517 15,9.83614397 L15,10.1794485 Z" id="Fill-5"></path>
            <path d="M0,9.30498863 C0.0990181522,9.07298541 0.163538898,8.81719303 0.303883295,8.61357193 C0.697954347,8.04145436 1.46266647,7.84760801 2.09798389,8.12483419 C2.75213949,8.4100686 3.11088896,9.10631379 2.96936718,9.81610231 C2.83655805,10.4823166 2.23667995,10.9810647 1.54626087,10.9994365 C0.806391587,11.0191038 0.1800223,10.5221223 0.0297878627,9.79737718 C0.0236654561,9.76793515 0.0100077799,9.74014187 0,9.71164198 L0,9.30498863 Z" id="Fill-7"></path>
            <path d="M0,1.30484403 C0.0988344925,1.07279044 0.163194573,0.817072337 0.303210104,0.613274896 C0.699136374,0.036849554 1.47722268,-0.15599863 2.10999875,0.132331775 C2.76665983,0.431493702 3.1171693,1.12812539 2.96456413,1.83087925 C2.81819496,2.50549469 2.20918623,2.99632746 1.5140503,2.99997721 C0.786204856,3.00386243 0.178019747,2.51055725 0.0296503477,1.79708961 C0.0236496821,1.76765612 0.0100011094,1.73987091 0,1.7113793 L0,1.30484403 Z" id="Fill-9"></path>
            <path d="M0,5.30451394 C0.0958668157,5.07670743 0.157739141,4.82594367 0.293952359,4.62556812 C0.692828889,4.03915766 1.46752686,3.84219626 2.10965809,4.13228166 C2.76943351,4.43037267 3.1244348,5.14569689 2.96010849,5.84606948 C2.79813474,6.53584641 2.17647079,7.01618262 1.46693872,6.99958277 C0.76669927,6.98321837 0.179029808,6.49652477 0.0318771866,5.81216339 C0.0244666229,5.77778639 0.0107041475,5.74470441 0,5.71103378 L0,5.30451394 Z" id="Fill-11"></path>
        </g>
    </g>
</svg>
