<?xml version="1.0" encoding="UTF-8"?>
<svg viewBox="0 0 14 12" version="1.1" xmlns="http://www.w3.org/2000/svg" xmlns:xlink="http://www.w3.org/1999/xlink">
    <g id="plitka_icon" stroke="none" stroke-width="1" fill="none" fill-rule="evenodd">
        <path d="M6.134296,6.874048 C6.347034,7.089746 6.453607,7.345316 6.453607,7.640408 L6.453607,10.910052 C6.453607,11.205144 6.347034,11.460714 6.134296,11.676244 C5.921354,11.89211 5.669278,11.999882 5.378051,11.999882 L1.075402,11.999882 C0.784175,11.999882 0.531878,11.89211 0.31914,11.676244 C0.106198,11.460714 -0.000154,11.205144 -0.000154,10.910052 L-0.000154,7.640408 C-0.000154,7.345316 0.106198,7.089746 0.31914,6.874048 C0.531878,6.65835 0.784175,6.55041 1.075402,6.55041 L5.378051,6.55041 C5.669278,6.55041 5.921354,6.65835 6.134296,6.874048 Z M6.134296,0.334746 C6.347034,0.550612 6.453607,0.806014 6.453607,1.101106 L6.453607,4.37075 C6.453607,4.66601 6.347034,4.921412 6.134296,5.13711 C5.921354,5.352808 5.669278,5.46058 5.378051,5.46058 L1.075402,5.46058 C0.784175,5.46058 0.531878,5.352808 0.31914,5.13711 C0.106198,4.921412 -0.000154,4.66601 -0.000154,4.37075 L-0.000154,1.101106 C-0.000154,0.806014 0.106198,0.550612 0.31914,0.334746 C0.531878,0.119048 0.784175,0.011108 1.075402,0.011108 L5.378051,0.011108 C5.669278,0.011108 5.921354,0.119048 6.134296,0.334746 Z M13.66363,6.874048 C13.876572,7.089746 13.983145,7.345316 13.983145,7.640408 L13.983145,10.910052 C13.983145,11.205144 13.876572,11.460714 13.66363,11.676244 C13.450688,11.89211 13.198612,11.999882 12.907385,11.999882 L8.60494,11.999882 C8.313492,11.999882 8.061416,11.89211 7.848678,11.676244 C7.635532,11.460714 7.529163,11.205144 7.529163,10.910052 L7.529163,7.640408 C7.529163,7.345316 7.635532,7.089746 7.848678,6.874048 C8.061416,6.65835 8.313492,6.55041 8.60494,6.55041 L12.907385,6.55041 C13.198612,6.55041 13.450688,6.65835 13.66363,6.874048 Z M13.66363,0.334746 C13.876572,0.550612 13.983145,0.806014 13.983145,1.101106 L13.983145,4.37075 C13.983145,4.66601 13.876572,4.921412 13.66363,5.13711 C13.450688,5.352808 13.198612,5.46058 12.907385,5.46058 L8.60494,5.46058 C8.313492,5.46058 8.061416,5.352808 7.848678,5.13711 C7.635532,4.921412 7.529163,4.66601 7.529163,4.37075 L7.529163,1.101106 C7.529163,0.806014 7.635532,0.550612 7.848678,0.334746 C8.061416,0.119048 8.313492,0.011108 8.60494,0.011108 L12.907385,0.011108 C13.198612,0.011108 13.450688,0.119048 13.66363,0.334746 Z" id="Combined-shape-309" fill="#969696"></path>
    </g>
</svg>
