<?xml version="1.0" encoding="UTF-8"?>
<svg width="18px" height="18px" viewBox="0 0 18 18" version="1.1" xmlns="http://www.w3.org/2000/svg" xmlns:xlink="http://www.w3.org/1999/xlink">
    <defs>
        <path d="M8.999947,-8.6e-05 C13.970353,-8.6e-05 17.999875,4.029352 17.999875,8.999863 C17.999875,13.970521 13.970353,17.999959 8.999947,17.999959 C4.02931,17.999959 -0.000191,13.970521 -0.000191,8.999863 C-0.000191,4.029352 4.02931,-8.6e-05 8.999947,-8.6e-05 Z" id="path-1"></path>
    </defs>
    <g id="search_by_place_icon" stroke="none" stroke-width="1" fill="none" fill-rule="evenodd">
        <g id="Эллипс-1">
            <use fill-opacity="0" fill="#000000" fill-rule="evenodd" xlink:href="#path-1"></use>
            <path stroke="#323232" stroke-width="1" d="M8.999947,0.499914 C4.30545768,0.499914 0.499809,4.30548907 0.499809,8.999863 C0.499809,13.6943625 4.30543621,17.499959 8.999947,17.499959 C13.6942649,17.499959 17.499875,13.6943244 17.499875,8.999863 C17.499875,4.30552717 13.6942434,0.499914 8.999947,0.499914 Z"></path>
        </g>
        <path d="M11.880085,7.944313 L9.256918,10.883928 C9.182677,10.966927 9.095035,11.008598 8.99356,11.008598 C8.891878,11.008598 8.80402,10.966927 8.729986,10.883928 L6.106828,7.944313 C6.032587,7.861146 5.99557,7.762733 5.99557,7.649053 C5.99557,7.535219 6.032587,7.436799 6.106828,7.353632 C6.180862,7.270472 6.26872,7.228969 6.370402,7.228969 L11.616718,7.228969 C11.718193,7.228969 11.806051,7.270472 11.880085,7.353632 C11.954326,7.436799 11.99155,7.535219 11.99155,7.649053 C11.99155,7.762733 11.954326,7.861146 11.880085,7.944313 L11.880085,7.944313 Z" id="fa-caret-up-копия-2" fill="#323232"></path>
    </g>
</svg>
