<svg width="18" height="18" viewBox="0 0 18 18" fill="none" xmlns="http://www.w3.org/2000/svg">
<path fill-rule="evenodd" clip-rule="evenodd" d="M9 18C13.9706 18 18 13.9706 18 9C18 4.02944 13.9706 0 9 0C4.02944 0 0 4.02944 0 9C0 13.9706 4.02944 18 9 18Z" fill="#CDCDCD"/>
<path fill-rule="evenodd" clip-rule="evenodd" d="M4.65582 4.00005L7.86418 0.791718C8.04527 0.610629 8.04527 0.317178 7.86418 0.136089C7.68345 -0.0453631 7.38927 -0.0453631 7.20855 0.136089L4.00018 3.34442L0.791818 0.136089C0.610727 -0.0453631 0.316909 -0.0453631 0.135818 0.136089C-0.0452727 0.317178 -0.0452727 0.610629 0.135818 0.791718L3.34455 4.00005L0.135818 7.20837C-0.0452727 7.38946 -0.0452727 7.68291 0.135818 7.864C0.226364 7.95455 0.345273 8 0.463818 8C0.582364 8 0.701273 7.95455 0.791818 7.864L4.00018 4.65567L7.20855 7.864C7.29909 7.95455 7.41764 8 7.53618 8C7.65509 8 7.77364 7.95455 7.86418 7.864C8.04527 7.68291 8.04527 7.38946 7.86418 7.20837L4.65582 4.00005Z" transform="translate(5 5)" fill="#515151"/>
</svg>
