<?xml version="1.0" encoding="UTF-8"?>
<svg width="14px" height="13px" viewBox="0 0 14 13" version="1.1" xmlns="http://www.w3.org/2000/svg" xmlns:xlink="http://www.w3.org/1999/xlink">
    <defs>
        <polygon id="path-1" points="4.61176471e-05 0.160484211 7.76460305 0.160484211 7.76460305 12.3199892 4.61176471e-05 12.3199892"></polygon>
    </defs>
    <g id="log_out_icon" stroke="none" stroke-width="1" fill="none" fill-rule="evenodd">
        <g id="Page-1">
            <path d="M11.0808588,2.86888191 C10.2321973,2.02419845 10.4305362,2.03499515 9.54786467,2.87364516 C9.22254443,3.18293903 9.2292193,3.40331885 9.55390383,3.69800541 C9.98300233,4.08763947 10.3793622,4.51363303 10.8791825,5.013457 L10.260645,5.013457 C8.51278373,5.013457 6.7649225,5.00726477 5.0172202,5.01567985 C3.85579359,5.0210782 3.91809234,4.82197424 3.92158869,6.13123361 C3.92333687,6.74204136 3.95067204,6.76696905 4.58510212,6.7672866 C6.49347797,6.7679217 8.40169489,6.76696905 10.3097529,6.7685568 C10.458507,6.76871558 10.6074201,6.78316411 10.7560153,6.79110287 C10.7789006,6.83301949 10.801468,6.87493611 10.8241943,6.91685273 C10.5268449,7.18295978 10.2163048,7.43588849 9.93421224,7.71739672 C9.04804438,8.60193273 9.05996378,8.38171168 9.95868675,9.31388021 C10.213762,9.57839951 10.4108294,9.59522967 10.6770294,9.32420059 C11.7771108,8.20435991 12.8911777,7.09801511 14,5.98674828 L14,5.79431287 C13.0272178,4.81879874 12.0572963,3.84074421 11.0808588,2.86888191" id="Fill-1" fill="#B6B6B6"></path>
            <g id="Group-5">
                <mask id="mask-2" fill="white">
                    <use xlink:href="#path-1"></use>
                </mask>
                <g id="Clip-4"></g>
                <path d="M7.15381553,10.8464307 C5.41518024,10.8454581 3.67669867,10.8461065 1.93806337,10.8461065 L1.42339043,10.8461065 L1.42339043,1.63528547 L1.94882416,1.63528547 C3.70298573,1.63528547 5.45714729,1.63706863 7.21115514,1.63204337 C7.36119122,1.63155705 7.63236298,1.60805179 7.64112533,1.55634021 C7.70507514,1.18041811 7.7548822,0.790230737 7.71798808,0.414308632 C7.70799592,0.312668632 7.38563357,0.173906526 7.20577475,0.172447579 C5.00165867,0.155912842 2.79723514,0.160613895 0.592965333,0.162397053 C0.0352492549,0.162883368 0.000661019608,0.203409684 0.000507294118,0.819571789 C-0.000107607843,4.43711284 -0.000107607843,8.054816 0.000507294118,11.6725192 C0.000661019608,12.277496 0.0380163137,12.3186707 0.603111216,12.3189949 C2.72990337,12.320616 4.8565418,12.3198055 6.98333396,12.3196434 C7.76979357,12.3196434 7.76979357,12.3193192 7.76364455,11.4708602 C7.75918651,10.8642623 7.74396769,10.8467549 7.15381553,10.8464307" id="Fill-3" fill="#B6B6B6" mask="url(#mask-2)"></path>
            </g>
        </g>
    </g>
</svg>
