<?xml version="1.0" encoding="UTF-8"?>
<svg viewBox="0 0 27 26" version="1.1" xmlns="http://www.w3.org/2000/svg" xmlns:xlink="http://www.w3.org/1999/xlink">
<g id="places_icon" stroke="none" stroke-width="1" fill="none" fill-rule="evenodd">
  <path d="M2.84210526,1.3e-05 L2.84210526,0.702715703 L2.84210526,23.8919049 L0,23.8919049 L0,26.000013 L27,26.000013 L27,23.8919049 L24.1586053,23.8919049 L24.1586053,10.5405535 L14.2105263,10.5405535 L14.2105263,0.702715703 L14.2105263,1.3e-05 L2.84210526,1.3e-05 Z M9,4.000013 L11,4.000013 L11,2.000013 L9,2.000013 L9,4.000013 Z M6,4.000013 L8,4.000013 L8,2.000013 L6,2.000013 L6,4.000013 Z M9,9.000013 L11,9.000013 L11,7.000013 L9,7.000013 L9,9.000013 Z M6,9.000013 L8,9.000013 L8,7.000013 L6,7.000013 L6,9.000013 Z M20,14.000013 L22,14.000013 L22,12.000013 L20,12.000013 L20,14.000013 Z M16,14.000013 L18,14.000013 L18,12.000013 L16,12.000013 L16,14.000013 Z M9,14.000013 L11,14.000013 L11,12.000013 L9,12.000013 L9,14.000013 Z M6,14.000013 L8,14.000013 L8,12.000013 L6,12.000013 L6,14.000013 Z M20,19.000013 L22,19.000013 L22,17.000013 L20,17.000013 L20,19.000013 Z M16,19.000013 L18,19.000013 L18,17.000013 L16,17.000013 L16,19.000013 Z M9,19.000013 L11,19.000013 L11,17.000013 L9,17.000013 L9,19.000013 Z M6,19.000013 L8,19.000013 L8,17.000013 L6,17.000013 L6,19.000013 Z M16,24.000013 L22,24.000013 L22,22.000013 L16,22.000013 L16,24.000013 Z M6,24.000013 L12,24.000013 L12,22.000013 L6,22.000013 L6,24.000013 Z" fill="#DCDCDC"></path>
</g>
</svg>
