<?xml version="1.0" encoding="UTF-8"?>
<svg viewBox="0 0 26 26" version="1.1" xmlns="http://www.w3.org/2000/svg" xmlns:xlink="http://www.w3.org/1999/xlink">
    <defs>
      <polygon id="path-1" points="1.17913832e-05 0.452947716 25.6807739 0.452947716 25.6807739 26 1.17913832e-05 26"></polygon>
    </defs>
    <g id="sale_icon" stroke="none" stroke-width="1" fill="none" fill-rule="evenodd">
        <g id="Page-1" transform="translate(0.000000, 0.000013)">
            <g id="Group-6">
              <g id="Group-3">
                  <mask id="mask-2" fill="white">
                    <use xlink:href="#path-1"></use>
                  </mask>
                  <g id="Clip-2"></g>
                  <path d="M8.91525556,19.1126722 C9.42658889,19.1126722 9.88158889,19.1198944 10.3358667,19.1061722 C10.4095333,19.1032833 10.5070333,19.0260056 10.5474778,18.95595 C10.7330889,18.6417833 10.9020889,18.31895 11.0761444,17.9982833 C12.7820333,14.8465056 14.4879222,11.6947278 16.1930889,8.54222778 C16.3989222,8.16017222 16.6011444,7.77667222 16.8221444,7.36139444 C16.2985333,7.36139444 15.8204222,7.35633889 15.3423111,7.36717222 C15.2816444,7.36861667 15.2036444,7.43867222 15.1682556,7.49717222 C15.0360889,7.72033889 14.9176444,7.95145 14.7948667,8.17967222 C12.9950889,11.5192278 11.1967556,14.8587833 9.3977,18.1990611 C9.24242222,18.4886722 9.09075556,18.7811722 8.91525556,19.1126722 M13.9050889,16.3667833 C13.9209778,17.0456722 14.1094778,17.8545611 14.8288111,18.4142833 C15.8666444,19.2217278 17.0388111,19.2816722 18.2109778,18.8086167 C20.0938111,18.0488389 20.2649778,15.2285611 18.9064778,14.0166722 C18.2853667,13.4620056 17.5436444,13.3045611 16.7419778,13.31395 C15.0035889,13.3363389 13.9007556,14.4485611 13.9050889,16.3667833 M8.86758889,13.1565056 C9.01058889,13.1463944 9.18175556,13.1442278 9.35075556,13.1218389 C10.3885889,12.9831722 11.1505333,12.4646167 11.5564222,11.48095 C11.7644222,10.9761167 11.8092,10.44095 11.7694778,9.90361667 C11.6864222,8.78633889 11.1823111,7.94278333 10.1249778,7.49067222 C9.59125556,7.26245 9.0207,7.22706111 8.45086667,7.27978333 C7.22742222,7.39245 6.40192222,8.02006111 6.04153333,9.21461667 C5.75192222,10.1758944 5.86531111,11.0981722 6.38025556,11.9532833 C6.9342,12.8741167 7.83481111,13.1326722 8.86758889,13.1565056 M2.0722,19.6543389 C2.12636667,18.9703944 2.1827,18.1766722 2.25636667,17.3843944 C2.27731111,17.1568944 2.23542222,16.9943944 2.05847778,16.8297278 C1.46264444,16.2772278 0.885588889,15.7045056 0.305644444,15.1361167 C-0.0525777778,14.7843944 -0.0930222222,14.4485611 0.169144444,14.0231722 C0.611866667,13.3045611 1.05747778,12.5881167 1.50886667,11.8752833 C1.58903333,11.74745 1.60636667,11.6391167 1.55581111,11.4925056 C1.27992222,10.6958944 1.01486667,9.89567222 0.749088889,9.09472778 C0.588033333,8.60939444 0.718033333,8.26200556 1.16292222,8.00633889 C1.87214444,7.59756111 2.58281111,7.19095 3.29781111,6.79083889 C3.4697,6.69406111 3.57008889,6.58861667 3.59825556,6.36978333 C3.70658889,5.55006111 3.84597778,4.73395 3.97381111,3.91567222 C4.04964444,3.42817222 4.34647778,3.16456111 4.88092222,3.14361667 C5.70064444,3.11111667 6.52108889,3.08728333 7.34153333,3.07211667 C7.53147778,3.06850556 7.65136667,3.00278333 7.76258889,2.84895 C8.24792222,2.17872778 8.74553333,1.51717222 9.23953333,0.852005556 C9.52914444,0.462005556 9.91481111,0.358005556 10.3517556,0.563116667 C11.1151444,0.921338889 11.8763667,1.28389444 12.6347,1.65295 C12.7798667,1.72300556 12.8975889,1.72733889 13.0442,1.65583889 C13.7945889,1.29039444 14.5493111,0.932894444 15.3047556,0.576116667 C15.7879222,0.347894444 16.1317,0.433116667 16.4523667,0.862838889 C16.9521444,1.53306111 17.4512,2.20328333 17.9430333,2.88000556 C18.0390889,3.01289444 18.1430889,3.06633889 18.3048667,3.06995 C19.1094222,3.08728333 19.9132556,3.11256111 20.7170889,3.13856111 C21.3728667,3.16095 21.6270889,3.39928333 21.7245889,4.05072778 C21.8473667,4.86900556 21.9752,5.68656111 22.1153111,6.50122778 C22.1312,6.59150556 22.2279778,6.69117222 22.3132,6.74100556 C23.0347,7.16206111 23.7627,7.57228333 24.4878111,7.98683889 C24.9673667,8.26128333 25.1009778,8.60939444 24.9247556,9.13300556 C24.6625889,9.91589444 24.4004222,10.6987833 24.1288667,11.4787833 C24.0761444,11.6297278 24.0898667,11.7445611 24.1758111,11.8796167 C24.6113111,12.5635611 25.0374222,13.2540056 25.4664222,13.9422833 C25.7885333,14.4572278 25.7531444,14.7742833 25.3227,15.1938944 C24.7348111,15.7658944 24.1411444,16.3328389 23.5604778,16.9127833 C23.4824778,16.9907833 23.4247,17.13595 23.4312,17.2457278 C23.4781444,18.0235611 23.5547,18.79995 23.5987556,19.5785056 C23.6124778,19.8218944 23.6175333,20.1013944 23.5142556,20.3072278 C23.4210889,20.4913944 23.1921444,20.6596722 22.9877556,20.7253944 C22.1716444,20.9918944 21.3425333,21.2186722 20.5155889,21.4512278 C20.3783667,21.4902278 20.3003667,21.5501722 20.2447556,21.6866722 C19.9334778,22.4522278 19.6099222,23.2127278 19.2921444,23.9753944 C19.0689778,24.5127278 18.7642,24.6831722 18.2030333,24.5712278 C17.3927,24.40945 16.5809222,24.2512833 15.7742,24.0750611 C15.5987,24.0360611 15.4853111,24.0793944 15.3567556,24.1833944 C14.7017,24.7171167 14.0423111,25.2443389 13.3822,25.7708389 C13.0023111,26.07345 12.6830889,26.0777833 12.3024778,25.7758944 C11.6481444,25.2558944 10.9959778,24.7315611 10.3495889,24.2021722 C10.2000889,24.0793944 10.0650333,24.0367833 9.8657,24.0815611 C9.08281111,24.2556167 8.29414444,24.40295 7.50836667,24.5647278 C6.95225556,24.6795611 6.63014444,24.5120056 6.40842222,23.9855056 C6.08703333,23.2235611 5.75986667,22.4645056 5.44497778,21.7011167 C5.38575556,21.5588389 5.30486667,21.4887833 5.15536667,21.4468944 C4.36742222,21.2295056 3.58164444,20.9998389 2.79586667,20.7723389 C2.22531111,20.6062278 2.04764444,20.3570611 2.0722,19.6543389" id="Fill-1" fill="#FF0101" mask="url(#mask-2)"></path>
                </g>
              <path d="M7.87545969,9.43727111 C8.00756588,9.15870865 8.32938847,9.00134765 8.7902702,9.00000841 C9.23923258,8.99866917 9.53324334,9.15736941 9.68819496,9.42253944 C10.1093455,10.1450608 10.1023926,10.8729392 9.6762756,11.5947909 C9.52231726,11.8566128 9.22631994,11.9958941 8.79821644,11.9999118 C8.36812637,12.0039295 8.0403441,11.8706749 7.91022447,11.6081833 C7.73342071,11.2499359 7.63309947,10.8756176 7.5,10.5100044 C7.62912635,10.1309988 7.71454839,9.77609948 7.87545969,9.43727111 Z" id="Fill-4" fill="#ED3833"></path>
                <path d="M17.6642187,17.5262409 C17.5323046,17.8118817 17.218509,17.9938355 16.7408201,17.9998561 C16.2461422,18.0058766 15.9353446,17.8225848 15.7774475,17.5295856 C15.4106863,16.8479276 15.4036909,16.1575732 15.7794462,15.477922 C15.9753186,15.1233795 16.2861162,14.9929346 16.7648044,15.0002931 C17.2374966,15.0076515 17.5482942,15.1528132 17.7041926,15.5147141 C17.8411035,15.8371471 17.9000651,16.1742969 18,16.5288393 C17.8920703,16.8579618 17.8131217,17.1991253 17.6642187,17.5262409 Z" id="Fill-6" fill="#ED3833"></path>
            </g>
        </g>
    </g>
</svg>
