<svg width="14" height="14" viewBox="0 0 14 14" version="1.1" xmlns="http://www.w3.org/2000/svg" xmlns:xlink="http://www.w3.org/1999/xlink">
<g id="Canvas" fill="none">
<g id="Page 1" opacity="0.4">
<mask id="mask0" mask-type="alpha" maskUnits="userSpaceOnUse" x="0" y="0" width="14" height="14">
<g id="Clip 2">
<path fill-rule="evenodd" clip-rule="evenodd" d="M 0 0L 14 0L 14 14L 0 14L 0 0Z" fill="white"/>
</g>
</mask>
<g mask="url(#mask0)">
<g id="Fill 1">
<path fill-rule="evenodd" clip-rule="evenodd" d="M 8.14768 7.00008L 13.7623 1.38551C 14.0792 1.0686 14.0792 0.555062 13.7623 0.238156C 13.446 -0.0793855 12.9312 -0.0793855 12.615 0.238156L 7.00032 5.85273L 1.38568 0.238156C 1.06877 -0.0793855 0.554591 -0.0793855 0.237682 0.238156C -0.0792273 0.555062 -0.0792273 1.0686 0.237682 1.38551L 5.85295 7.00008L 0.237682 12.6147C -0.0792273 12.9316 -0.0792273 13.4451 0.237682 13.762C 0.396136 13.9205 0.604227 14 0.811682 14C 1.01914 14 1.22723 13.9205 1.38568 13.762L 7.00032 8.14743L 12.615 13.762C 12.7734 13.9205 12.9809 14 13.1883 14C 13.3964 14 13.6039 13.9205 13.7623 13.762C 14.0792 13.4451 14.0792 12.9316 13.7623 12.6147L 8.14768 7.00008Z" fill="#969696"/>
</g>
</g>
</g>
</g>
</svg>

