<svg width="14" height="14" viewBox="0 0 14 14" version="1.1" xmlns="http://www.w3.org/2000/svg" xmlns:xlink="http://www.w3.org/1999/xlink">
<g id="Canvas" fill="none">
<g id="fa-facebook-square &#208;&#186;&#208;&#190;&#208;&#191;&#208;&#184;&#209;&#143;">
<path fill-rule="evenodd" clip-rule="evenodd" d="M 3.7935 0.706935C 3.08477 0.706935 2.4789 0.963298 1.97582 1.47584C 1.4725 1.98857 1.22101 2.60575 1.22101 3.3276L 1.22101 12.0632C 1.22101 12.7852 1.4725 13.4023 1.97582 13.9149C 2.4789 14.4275 3.08477 14.6838 3.7935 14.6838L 8.54554 14.6838L 8.54554 9.2696L 6.75903 9.2696L 6.75903 7.1585L 8.54554 7.1585L 8.54554 5.60248C 8.54554 4.71684 8.78808 4.03138 9.27349 3.54599C 9.75873 3.06074 10.4064 2.81801 11.2163 2.81801C 11.901 2.81801 12.4311 2.84532 12.8062 2.89995L 12.8062 4.78354L 11.7165 4.79263C 11.3114 4.79263 11.039 4.87768 10.8992 5.04743C 10.7592 5.21732 10.6893 5.47211 10.6893 5.81179L 10.6893 7.1585L 12.7348 7.1585L 12.4668 9.2696L 10.6893 9.2696L 10.6893 14.6838L 12.3685 14.6838C 13.0771 14.6838 13.683 14.4275 14.1863 13.9149C 14.6894 13.4023 14.941 12.7852 14.941 12.0632L 14.941 3.3276C 14.941 2.60575 14.6894 1.98857 14.1863 1.47584C 13.683 0.963298 13.0771 0.706935 12.3685 0.706935L 3.7935 0.706935Z" transform="translate(-1.22095 -0.706909)" fill="#BEBEBE"/>
</g>
</g>
</svg>

