<svg width="19" height="13" viewBox="0 0 19 13" version="1.1" xmlns="http://www.w3.org/2000/svg" xmlns:xlink="http://www.w3.org/1999/xlink">
<g id="Canvas" fill="none">
<g id="mail_icon">
<g id="Page 1">
<path id="Fill 1" fill-rule="evenodd" clip-rule="evenodd" d="M 3.36877 1.75195C 3.4879 1.86943 3.55083 1.93585 3.61859 1.99773C 5.34856 3.57717 7.07771 5.15735 8.81005 6.73455C 9.38977 7.2624 10.0041 7.25888 10.5943 6.72859C 12.3469 5.15396 14.0977 3.57764 15.8483 2.00119C 15.9225 1.93429 15.988 1.85941 16.0931 1.75195L 3.36877 1.75195ZM 1.92196 2.62158C 1.91313 2.792 1.90452 2.88124 1.90452 2.97035C 1.90385 5.40738 1.90237 7.84447 1.90504 10.2816C 1.90586 11.0289 2.16963 11.2624 3.00652 11.2627C 7.33518 11.2639 11.6638 11.2639 15.9924 11.2626C 16.8416 11.2623 17.0947 11.0293 17.0954 10.2481C 17.0973 7.83364 17.0964 5.41916 17.0951 3.00474C 17.095 2.90095 17.0805 2.79715 17.0728 2.69335C 17.0431 2.68056 17.0133 2.66776 16.9835 2.65503C 16.8911 2.75896 16.8071 2.87048 16.7051 2.96588C 14.7792 4.76686 12.8518 6.56627 10.9237 8.36529C 10.1349 9.10128 9.312 9.11164 8.49908 8.39745C 6.47677 6.62105 4.45505 4.84411 2.43296 3.06751C 2.28385 2.93649 2.13378 2.80636 1.92196 2.62158L 1.92196 2.62158ZM 19 1.21875L 19 11.7813C 18.9503 11.8692 18.9027 11.9581 18.8509 12.045C 18.5012 12.6311 17.9971 12.9999 17.2317 12.9999C 12.0772 13 6.92275 13 1.76826 12.9999C 1.00329 12.9999 0.498305 12.6321 0.149031 12.0453C 0.0973008 11.9583 0.0495781 11.8694 0 11.7813L 0 1.21875C 0.0494297 1.13046 0.0970781 1.04136 0.148512 0.954079C 0.496004 0.364948 1.00344 0.000203125 1.76759 0.000203125C 6.92246 -6.77084e-05 12.0774 -6.77084e-05 17.2323 0.000203125C 17.9966 0.000203125 18.5036 0.365558 18.8513 0.95435C 18.9028 1.04149 18.9506 1.13053 19 1.21875L 19 1.21875Z" transform="translate(-3.05176e-05 0)" fill="#B5B5B5"/>
</g>
</g>
</g>
</svg>
