<svg width="20" height="10" viewBox="0 0 20 10" version="1.1" xmlns="http://www.w3.org/2000/svg" xmlns:xlink="http://www.w3.org/1999/xlink">
<g id="Canvas" fill="none">
<g id="fa-vk &#208;&#186;&#208;&#190;&#208;&#191;&#208;&#184;&#209;&#143;">
<path fill-rule="evenodd" clip-rule="evenodd" d="M 21.1879 1.81279C 21.147 1.7582 21.0411 1.70816 20.8706 1.66268C 20.7 1.61713 20.4817 1.60962 20.2156 1.63989L 17.2681 1.65812C 17.1997 1.65214 17.1315 1.65353 17.0634 1.66268C 16.9951 1.67177 16.9508 1.68087 16.9303 1.68996C 16.9099 1.69906 16.8927 1.70672 16.8791 1.71271L 16.8382 1.74C 16.804 1.7582 16.7666 1.79004 16.7256 1.83554C 16.6847 1.88102 16.6505 1.93421 16.6233 1.99479C 16.3025 2.72884 15.9376 3.41132 15.5282 4.0422C 15.2757 4.41836 15.0437 4.74441 14.8323 5.02036C 14.6207 5.29649 14.4433 5.49967 14.3 5.63006C 14.1568 5.76058 14.0271 5.86521 13.9112 5.94398C 13.7951 6.02289 13.7065 6.05631 13.645 6.04406C 13.5837 6.03199 13.5255 6.01991 13.4711 6.00766C 13.3754 5.95308 13.2987 5.87886 13.2408 5.78473C 13.1828 5.69078 13.1436 5.57245 13.1231 5.42986C 13.1026 5.28739 13.0906 5.16453 13.0873 5.0613C 13.0837 4.95826 13.0855 4.81263 13.0924 4.62455C 13.0991 4.43661 13.1026 4.30919 13.1026 4.24235C 13.1026 4.01189 13.1077 3.76165 13.1179 3.49163C 13.1282 3.2218 13.1367 3.00795 13.1436 2.85014C 13.1503 2.69246 13.1538 2.52568 13.1538 2.34965C 13.1538 2.17378 13.1418 2.03574 13.1179 1.93566C 13.094 1.83554 13.0582 1.73856 13.0105 1.64443C 12.9627 1.55048 12.8928 1.4777 12.8007 1.42607C 12.7086 1.3746 12.5942 1.33366 12.4579 1.30321C 12.0961 1.23043 11.6356 1.19102 11.0762 1.18494C 9.80708 1.17282 8.99166 1.24565 8.63011 1.40333C 8.48687 1.47013 8.35715 1.56116 8.24125 1.67632C 8.11842 1.80982 8.10126 1.8826 8.19004 1.89467C 8.59942 1.9493 8.88935 2.07983 9.06002 2.28597L 9.12137 2.39515C 9.16904 2.47406 9.21688 2.61354 9.26462 2.81374C 9.31228 3.01395 9.34306 3.23544 9.35675 3.47799C 9.39079 3.9209 9.39079 4.30009 9.35675 4.61545C 9.32253 4.93096 9.29026 5.17665 9.2596 5.35253C 9.22882 5.52854 9.18275 5.671 9.12137 5.78017C 9.06002 5.8894 9.01909 5.95618 8.99857 5.98038C 8.97813 6.0047 8.96097 6.01991 8.94737 6.02586C 8.85869 6.05631 8.76655 6.07136 8.67104 6.07136C 8.57546 6.07136 8.45946 6.02901 8.32311 5.94398C 8.18649 5.85908 8.04502 5.74234 7.89833 5.59362C 7.75156 5.44508 7.5862 5.23736 7.40194 4.97032C 7.21776 4.70346 7.02667 4.38796 6.82887 4.02395L 6.66512 3.76011C 6.56274 3.59031 6.42285 3.3431 6.24548 3.01849C 6.06801 2.69403 5.91105 2.3801 5.77472 2.07668C 5.71999 1.9493 5.6381 1.85233 5.52908 1.7855L 5.47788 1.7582C 5.44366 1.73402 5.3891 1.70816 5.31413 1.68087C 5.23897 1.65353 5.16064 1.63394 5.07875 1.62169L 2.27447 1.63989C 1.9879 1.63989 1.79345 1.69762 1.69117 1.81279L 1.65021 1.86738C 1.6297 1.89783 1.61945 1.94628 1.61945 2.01299C 1.61945 2.07983 1.63997 2.16171 1.6809 2.25867C 2.0903 3.11403 2.5355 3.9391 3.01652 4.73373C 3.49751 5.52854 3.9154 6.16846 4.27022 6.65376C 4.62488 7.13915 4.98662 7.59711 5.35508 8.02777C 5.72352 8.45857 5.96739 8.73453 6.08686 8.85583C 6.20612 8.97726 6.30003 9.06824 6.3683 9.12881L 6.62419 9.34721C 6.78794 9.49277 7.02845 9.66726 7.34569 9.87043C 7.66296 10.0737 8.01424 10.2739 8.39987 10.471C 8.78519 10.6682 9.23395 10.829 9.74573 10.9533C 10.2574 11.0777 10.7554 11.1277 11.24 11.1034L 12.4169 11.1034C 12.6557 11.0852 12.8365 11.0185 12.9593 10.9032L 13.0002 10.8577C 13.0275 10.8213 13.053 10.7653 13.077 10.6894C 13.1009 10.6136 13.1128 10.5301 13.1128 10.4391C 13.106 10.1784 13.1282 9.94322 13.1794 9.73391C 13.2305 9.52462 13.2884 9.36697 13.3533 9.26073C 13.4181 9.15466 13.4915 9.06512 13.5734 8.99229C 13.6553 8.91951 13.7132 8.8756 13.7474 8.86037C 13.7815 8.84529 13.8088 8.83466 13.8293 8.82853C 13.993 8.78003 14.1857 8.82709 14.4075 8.96955C 14.6291 9.11219 14.8374 9.28807 15.0318 9.49732C 15.2263 9.70661 15.4599 9.94178 15.7329 10.2025C 16.0057 10.4635 16.2446 10.6575 16.4493 10.7849L 16.654 10.8941C 16.7904 10.9669 16.9677 11.0338 17.1862 11.0943C 17.4044 11.1549 17.5956 11.1701 17.7594 11.1398L 20.3794 11.1034C 20.6386 11.1034 20.8399 11.0656 20.9832 10.9897C 21.1264 10.9139 21.2117 10.8304 21.2391 10.7394C 21.2662 10.6484 21.268 10.5453 21.2441 10.43C 21.2202 10.3149 21.1964 10.2344 21.1725 10.1889C 21.1485 10.1434 21.1264 10.1056 21.106 10.0752C 20.7647 9.52916 20.1132 8.85893 19.1512 8.06417L 19.1308 8.04597L 19.1205 8.03687L 19.1103 8.02777L 19.1 8.02777C 18.6633 7.65783 18.387 7.40897 18.2711 7.28161C 18.0595 7.03903 18.0117 6.79334 18.1277 6.54453C 18.2096 6.35659 18.5167 5.95921 19.0489 5.35253C 19.3286 5.03104 19.5503 4.77328 19.7141 4.57907C 20.8944 3.18383 21.4062 2.2921 21.2493 1.90377L 21.1879 1.81279Z" transform="translate(-1.61951 -1.18365)" fill="#BEBEBE"/>
</g>
</g>
</svg>

