<svg width="27" height="27" viewBox="0 0 27 27" version="1.1" xmlns="http://www.w3.org/2000/svg" xmlns:xlink="http://www.w3.org/1999/xlink">

<g transform="translate(-3558 644)">

  <g id="Oval" filter="url(#filter0_d)">
    <use xlink:href="#path0_fill" transform="translate(3562 -642)" fill="#FFFFFF"/>
  </g>
  <g id="Line 1">
    <use xlink:href="#path1_stroke" transform="translate(3570 -634)" fill="#979797"/>
  </g>
  <g id="Line 2">
    <use xlink:href="#path1_stroke" transform="matrix(-1 0 0 1 3582 -634)" fill="#979797"/>
  </g>
</g>
<defs>
  <filter id="filter0_d" filterUnits="userSpaceOnUse" x="3558" y="-644" width="35" height="35" color-interpolation-filters="sRGB">


  </filter>
  <path id="path0_fill" fill-rule="evenodd" d="M 13.5 27C 20.9558 27 27 20.9558 27 13.5C 27 6.04416 20.9558 0 13.5 0C 6.04416 0 0 6.04416 0 13.5C 0 20.9558 6.04416 27 13.5 27Z"/>
  <path id="path1_stroke" d="M 1.34627 0.839306L 0.985572 0.49304L 0.29304 1.21443L 0.653734 1.56069L 1.34627 0.839306ZM 10.6537 11.1607L 11.0144 11.507L 11.707 10.7856L 11.3463 10.4393L 10.6537 11.1607ZM 0.653734 1.56069L 10.6537 11.1607L 11.3463 10.4393L 1.34627 0.839306L 0.653734 1.56069Z"/>
</defs>
</svg>

