<?xml version="1.0" encoding="UTF-8"?>
<svg width="12px" height="7px" viewBox="0 0 12 7" version="1.1" xmlns="http://www.w3.org/2000/svg" xmlns:xlink="http://www.w3.org/1999/xlink">

<path d="M11.3170872,0.000195643037 C11.5210857,-0.00019319371 11.6995589,0.0482169813 11.8410714,0.191697741 C12.0558927,0.408863064 12.0532381,0.703212482 11.8312697,0.946429867 C10.8729463,1.99667792 9.91319337,3.04575946 8.9538489,4.09542426 C8.23668888,4.88029124 7.51789524,5.6639917 6.80236884,6.45041402 C6.31391588,6.98720315 5.68762608,6.99439663 5.20101095,6.46169029 C3.53737123,4.64018454 1.87556933,2.81692904 0.210091788,0.997173062 C0.0320269989,0.802365852 -0.0672155326,0.596865631 0.0522430702,0.348010113 C0.175173119,0.0917666969 0.403880188,-0.000387612084 0.692010254,1.22466331e-06 C2.46612366,0.00272308189 4.24003286,0.00136215328 6.01394206,0.00136215328 C7.78152097,0.00136215328 9.54930409,0.00233424515 11.3170872,0.000195643037 Z" id="Fill-1" fill="#A1A1A1" mask="url(#mask-2)"></path>

</svg>
