<?xml version="1.0" encoding="UTF-8"?>
<svg width="14px" height="14px" viewBox="0 0 14 14" version="1.1" xmlns="http://www.w3.org/2000/svg" xmlns:xlink="http://www.w3.org/1999/xlink">
    <defs>
        <polygon id="path-1" points="0 0 14 0 14 14 0 14"></polygon>
    </defs>
    <g id="search_icon" stroke="none" stroke-width="1" fill="none" fill-rule="evenodd">
        <g id="Page-1" transform="translate(0.000000, 0.000013)">
            <mask id="mask-2" fill="white">
                <use xlink:href="#path-1"></use>
            </mask>
            <g id="Clip-2"></g>
            <path d="M8.82583779,8.82583779 C9.60835357,8.043322 10,7.10150559 10,5.99961146 C10,4.89927149 9.60835357,3.956678 8.82583779,3.17416221 C8.043322,2.39164643 7.10072851,2 6.00038854,2 C4.89849441,2 3.956678,2.39164643 3.17416221,3.17416221 C2.39164643,3.956678 2,4.89927149 2,5.99961146 C2,7.10150559 2.39164643,8.043322 3.17416221,8.82583779 C3.956678,9.60835357 4.89849441,10 6.00038854,10 C7.10072851,10 8.043322,9.60835357 8.82583779,8.82583779 M14,12.9228516 C14,13.2142895 13.8930906,13.4669177 13.6800042,13.6800042 C13.4669177,13.8930906 13.2142895,14 12.9228516,14 C12.6196977,14 12.3678017,13.8930906 12.165699,13.6800042 L9.27987865,10.8022386 C8.27595586,11.4986139 7.15633663,11.8457032 5.92321774,11.8457032 C5.12066531,11.8457032 4.35399341,11.690465 3.62173754,11.378524 C2.89021392,11.0673152 2.25900936,10.6470004 1.72885611,10.1168471 C1.19870286,9.58669386 0.778387991,8.9554893 0.467179246,8.22396569 C0.155238245,7.49170982 0,6.72503792 0,5.92248549 C0,5.12066531 0.155238245,4.35399341 0.467179246,3.62173754 C0.778387991,2.89021392 1.19870286,2.25900936 1.72885611,1.72885611 C2.25900936,1.19870286 2.89021392,0.778387991 3.62173754,0.467179246 C4.35399341,0.155238245 5.12066531,0 5.92321774,0 C6.72503792,0 7.49170982,0.155238245 8.22396569,0.467179246 C8.9554893,0.778387991 9.58669386,1.19870286 10.1168471,1.72885611 C10.6470004,2.25900936 11.0673152,2.89021392 11.378524,3.62173754 C11.690465,4.35399341 11.8457032,5.12066531 11.8457032,5.92248549 C11.8457032,7.15706888 11.4978817,8.27595586 10.8022386,9.27987865 L13.688059,12.165699 C13.8952874,12.3729275 14,12.6255557 14,12.9228516" id="Fill-1" fill="#FF0101" mask="url(#mask-2)"></path>
        </g>
    </g>
</svg>
