<?xml version="1.0" encoding="UTF-8"?>
<svg width="11px" height="16px" viewBox="0 0 11 16" version="1.1" xmlns="http://www.w3.org/2000/svg" xmlns:xlink="http://www.w3.org/1999/xlink">

<path d="M5.499954,-8.5e-05 C8.564218,-8.5e-05 10.99998,2.47989 10.99998,5.599861 C10.99998,9.759892 5.499954,15.999891 5.499954,15.999891 C5.499954,15.999891 -7.20000007e-05,9.759892 -7.20000007e-05,5.599861 C-7.20000007e-05,2.47989 2.43569,-8.5e-05 5.499954,-8.5e-05 Z M5.499954,7.599858 C6.599962,7.599858 7.464224,6.719873 7.464224,5.599861 C7.464224,4.479887 6.599962,3.599921 5.499954,3.599921 C4.399946,3.599921 3.535684,4.479887 3.535684,5.599861 C3.535684,6.719873 4.399946,7.599858 5.499954,7.599858 Z" id="Combined-shape-137" fill="#B6B6B6"></path>

</svg>
