<?xml version="1.0" encoding="UTF-8"?>
<svg width="26px" height="26px" viewBox="0 0 26 26" version="1.1" xmlns="http://www.w3.org/2000/svg" xmlns:xlink="http://www.w3.org/1999/xlink">
    <defs>
        <polygon id="path-1" points="4.61176471e-05 0.160484211 7.76460305 0.160484211 7.76460305 12.3199892 4.61176471e-05 12.3199892"></polygon>
    </defs>
    <g id="regist_icon" stroke="none" stroke-width="1" fill="none" fill-rule="evenodd">
        <g id="Page-1" transform="translate(13.000000, 13.000000) scale(-1, 1) translate(-13.000000, -13.000000) ">
            <circle id="Oval" stroke="#B6B6B6" cx="13" cy="13" r="13"></circle>
            <path d="M19.3856043,10.5632294 C18.6255394,9.80672718 18.8031725,9.81639676 18.012648,10.5674954 C17.7212898,10.8445003 17.7272678,11.0418735 18.0180567,11.3057961 C18.4023592,11.654754 18.7573409,12.0362757 19.2049821,12.4839203 L18.6510172,12.4839203 C17.085625,12.4839203 15.5202328,12.4783745 13.9549829,12.4859111 C12.9148041,12.4907459 12.9705992,12.3124275 12.9737305,13.4850059 C12.9752962,14.032048 12.9997777,14.0543734 13.5679761,14.0546578 C15.2771259,14.0552266 16.9861333,14.0543734 18.6949985,14.0557954 C18.8282233,14.0559376 18.9615905,14.0688777 19.0946731,14.0759877 C19.1151692,14.1135284 19.1353807,14.1510692 19.1557345,14.1886099 C18.8894271,14.4269365 18.6113059,14.6534606 18.3586626,14.9055806 C17.5650068,15.6977749 17.5756818,15.500544 18.3805821,16.3353982 C18.6090286,16.5723029 18.7855231,16.587376 19.0239329,16.3446412 C20.0091707,15.341707 21.0069339,14.3508597 22,13.3556042 L22,13.1832582 C21.128772,12.3095835 20.260106,11.4336336 19.3856043,10.5632294" id="Fill-1" fill="#B6B6B6" transform="translate(17.486154, 13.260000) scale(-1, 1) translate(-17.486154, -13.260000) "></path>
            <g id="Group-5" transform="translate(8.000000, 7.000000)">
                <mask id="mask-2" fill="white">
                    <use xlink:href="#path-1"></use>
                </mask>
                <g id="Clip-4"></g>
                <path d="M7.15381553,10.8464307 C5.41518024,10.8454581 3.67669867,10.8461065 1.93806337,10.8461065 L1.42339043,10.8461065 L1.42339043,1.63528547 L1.94882416,1.63528547 C3.70298573,1.63528547 5.45714729,1.63706863 7.21115514,1.63204337 C7.36119122,1.63155705 7.63236298,1.60805179 7.64112533,1.55634021 C7.70507514,1.18041811 7.7548822,0.790230737 7.71798808,0.414308632 C7.70799592,0.312668632 7.38563357,0.173906526 7.20577475,0.172447579 C5.00165867,0.155912842 2.79723514,0.160613895 0.592965333,0.162397053 C0.0352492549,0.162883368 0.000661019608,0.203409684 0.000507294118,0.819571789 C-0.000107607843,4.43711284 -0.000107607843,8.054816 0.000507294118,11.6725192 C0.000661019608,12.277496 0.0380163137,12.3186707 0.603111216,12.3189949 C2.72990337,12.320616 4.8565418,12.3198055 6.98333396,12.3196434 C7.76979357,12.3196434 7.76979357,12.3193192 7.76364455,11.4708602 C7.75918651,10.8642623 7.74396769,10.8467549 7.15381553,10.8464307" id="Fill-3" fill="#B6B6B6" mask="url(#mask-2)"></path>
            </g>
        </g>
    </g>
</svg>
