<svg width="14" height="15" viewBox="0 0 14 15" fill="none" xmlns="http://www.w3.org/2000/svg">
<mask id="mask0" mask-type="alpha" maskUnits="userSpaceOnUse" x="0" y="0" width="14" height="15">
<path fill-rule="evenodd" clip-rule="evenodd" d="M0 0H14V15H0V0Z" fill="white"/>
</mask>
<g mask="url(#mask0)">
</g>
<path fill-rule="evenodd" clip-rule="evenodd" d="M9.06907 14.838C9.17925 14.6339 9.2948 14.4326 9.40533 14.2286C9.65182 13.7743 9.78252 13.283 9.86204 12.7766C9.93211 12.3299 9.98516 11.8807 9.97945 11.428C9.96931 10.6393 9.75815 9.89646 9.43413 9.18418C8.96495 8.15218 8.33148 7.23142 7.53664 6.42259C7.46109 6.34552 7.37481 6.27894 7.29354 6.20759C7.29727 6.32873 7.3221 6.43448 7.33551 6.54175C7.38565 6.93935 7.31814 7.32551 7.20784 7.70527C7.01044 8.38433 6.68864 9.0059 6.31518 9.60241C6.20173 9.78371 6.08035 9.96012 5.95338 10.1372C6.02637 9.37714 5.99664 8.64212 5.52139 8.00107C5.49644 8.03022 5.49586 8.05681 5.49656 8.08327C5.50728 8.46303 5.48303 8.83823 5.35372 9.20015C5.24879 9.49397 5.07634 9.74337 4.82683 9.92794C4.13319 10.4409 3.7602 11.1521 3.53669 11.9618C3.42067 12.3823 3.33498 12.806 3.35375 13.2443C3.38138 13.8918 3.5747 14.4759 4.02254 14.9602C3.91726 14.9412 3.80428 14.8966 3.69386 14.8464C2.80878 14.4437 1.99727 13.9306 1.30877 13.2373C0.781401 12.7063 0.374712 12.0984 0.15761 11.375C0.0127975 10.8924 -0.0295269 10.3999 0.0195601 9.89856C0.117851 8.89315 0.447469 7.95572 0.859287 7.043C1.20814 6.26997 1.63034 5.53611 2.05836 4.80517C2.17414 4.60742 2.27675 4.40174 2.38635 4.20015C2.40885 4.15864 2.43509 4.11923 2.45957 4.07877C2.48767 4.11457 2.4977 4.14745 2.49525 4.1794C2.47986 4.38286 2.46727 4.58667 2.44313 4.78919C2.40046 5.14831 2.40127 5.50778 2.42366 5.86736C2.44931 6.27766 2.49303 6.68598 2.58771 7.08707C2.60298 7.15225 2.62875 7.21486 2.65592 7.29776C2.73742 7.23748 2.80505 7.19318 2.86614 7.14106C3.30653 6.76573 3.70226 6.34599 4.08096 5.91015C4.48811 5.44155 4.87859 4.95942 5.19189 4.4211C5.66271 3.61227 5.90313 2.74363 5.84914 1.80293C5.81591 1.22345 5.6669 0.672178 5.43091 0.143064C5.41109 0.0987571 5.40619 0.0478045 5.3943 0C5.44572 0.00233193 5.4997 -0.00478045 5.54821 0.00839494C6.08082 0.153907 6.54825 0.426276 6.98339 0.758226C7.70023 1.30518 8.2937 1.97024 8.82282 2.69524C9.53767 3.67465 10.1314 4.72064 10.5521 5.86106C10.5684 5.90525 10.5899 5.94746 10.6143 6.00261C10.7384 5.82177 10.8016 5.63463 10.8434 5.43968C10.9358 5.01014 10.92 4.57862 10.8179 4.15619C10.7258 3.77551 10.5976 3.40356 10.4856 3.02777C10.4645 2.957 10.442 2.88646 10.4245 2.81475C10.4156 2.77907 10.4163 2.74095 10.4128 2.70387C10.4808 2.71553 10.5333 2.7392 10.5742 2.77558C10.7345 2.91794 10.8933 3.06217 11.0488 3.20978C11.4022 3.54534 11.7687 3.86785 12.0764 4.24912C12.7335 5.06331 13.1821 5.98279 13.4636 6.9868C13.6225 7.55381 13.7186 8.13131 13.7436 8.72024C13.7448 8.74531 13.7515 8.77003 13.7555 8.79498V9.3312C13.7506 9.3712 13.7435 9.41119 13.7413 9.45141C13.7145 9.92643 13.6452 10.3942 13.5012 10.8492C13.225 11.7224 12.7314 12.4592 12.0811 13.0949C11.262 13.8956 10.3016 14.4779 9.24419 14.907C9.16957 14.9372 9.09565 14.9689 9.02126 15C9.02663 14.9458 9.04178 14.8887 9.06907 14.838Z" fill="#FF0000"/>
</svg>
