<svg width="16" height="16" viewBox="0 0 16 16" version="1.1" xmlns="http://www.w3.org/2000/svg" xmlns:xlink="http://www.w3.org/1999/xlink">
<g id="Canvas" fill="none">
<g id="Group 6" opacity="0.457824">
<g id="Oval 2" transform="translate(1 1)">
<path fill-rule="evenodd" clip-rule="evenodd" d="M 7 14C 10.866 14 14 10.866 14 7C 14 3.13401 10.866 0 7 0C 3.13401 0 0 3.13401 0 7C 0 10.866 3.13401 14 7 14Z" fill="#D8D8D8"/>
<path d="M 7 14C 10.866 14 14 10.866 14 7C 14 3.13401 10.866 0 7 0C 3.13401 0 0 3.13401 0 7C 0 10.866 3.13401 14 7 14Z" stroke="#979797"/>
</g>
<g id="Group 4">
<path id="Line 2" d="M 0.5 0.6L 5.5 5.4" transform="translate(5 5)" stroke="#979797" stroke-linecap="square"/>
<path id="Line 2 Copy" d="M 0.5 0.6L 5.5 5.4" transform="translate(11 5) scale(-1 1)" stroke="#979797" stroke-linecap="square"/>
</g>
</g>
</g>
</svg>
