<svg width="17" height="17" viewBox="0 0 17 17" version="1.1" xmlns="http://www.w3.org/2000/svg" xmlns:xlink="http://www.w3.org/1999/xlink">
<g id="Canvas" fill="none">
<g id="fa-star">
<path fill-rule="evenodd" clip-rule="evenodd" d="M 18.4302 8.0802L 13.3015 7.29842L 11.003 2.42442C 10.8735 2.13168 10.7067 1.98523 10.5022 1.98523C 10.298 1.98523 10.131 2.13168 10.0017 2.42442L 7.70298 7.29842L 2.57433 8.0802C 2.19287 8.14464 2.00224 8.30897 2.00224 8.57302C 2.00224 8.72306 2.08745 8.89445 2.25761 9.08731L 5.97653 12.8793L 5.09776 18.2354C 5.08414 18.3353 5.07731 18.4066 5.07731 18.4496C 5.07731 18.5995 5.1131 18.7263 5.18466 18.8299C 5.25623 18.9333 5.36358 18.9852 5.50649 18.9852C 5.62916 18.9852 5.76526 18.9424 5.9152 18.8567L 10.5022 16.3286L 15.0895 18.8567C 15.2324 18.9424 15.3685 18.9852 15.498 18.9852C 15.6343 18.9852 15.7383 18.9333 15.8096 18.8299C 15.8812 18.7263 15.917 18.5995 15.917 18.4496C 15.917 18.3568 15.9136 18.2853 15.9067 18.2354L 15.0282 12.8793L 18.7367 9.08731C 18.9137 8.90167 19.0022 8.73028 19.0022 8.57302C 19.0022 8.30897 18.8116 8.14464 18.4302 8.0802Z" transform="translate(-2.00226 -1.98523)" fill="#FFD200"/>
</g>
</g>
</svg>

