<svg width="17" height="17" viewBox="0 0 17 17" version="1.1" xmlns="http://www.w3.org/2000/svg" xmlns:xlink="http://www.w3.org/1999/xlink">
<g id="Canvas" fill="none">
<g id="fa-star &#208;&#186;&#208;&#190;&#208;&#191;&#208;&#184;&#209;&#143; 4">
<path fill-rule="evenodd" clip-rule="evenodd" d="M 16.4279 6.09497L 11.2993 5.31319L 9.00052 0.439188C 8.87103 0.146449 8.70427 0 8.5 0C 8.29553 0 8.12877 0.146449 7.99928 0.439188L 5.70074 5.31319L 0.572087 6.09497C 0.190629 6.15942 0 6.32374 0 6.58779C 0 6.73784 0.0849821 6.90922 0.255367 7.10208L 3.97409 10.8941L 3.09551 16.2502C 3.0819 16.3501 3.07507 16.4214 3.07507 16.4644C 3.07507 16.6143 3.11085 16.7411 3.18242 16.8447C 3.25398 16.948 3.36111 17 3.50425 17C 3.62671 17 3.76302 16.9572 3.91274 16.8714L 8.5 14.3434L 13.087 16.8714C 13.2302 16.9572 13.3663 17 13.4958 17C 13.6319 17 13.7358 16.948 13.8074 16.8447C 13.8789 16.7411 13.9147 16.6143 13.9147 16.4644C 13.9147 16.3716 13.9111 16.3001 13.9045 16.2502L 13.0257 10.8941L 16.7344 7.10208C 16.9114 6.91644 17 6.74506 17 6.58779C 17 6.32374 16.8092 6.15942 16.4279 6.09497Z" transform="translate(-1.52588e-05 0)" fill="#DCDCDC"/>
</g>
</g>
</svg>

