<svg width="16" height="14" viewBox="0 0 16 14" version="1.1" xmlns="http://www.w3.org/2000/svg" xmlns:xlink="http://www.w3.org/1999/xlink">
<path id="Page 1" fill-rule="evenodd" clip-rule="evenodd" d="M 7.99999 13.9768C 7.84532 13.9768 7.71465 13.9225 7.60799 13.8138L 2.036 8.33638C 1.976 8.28746 1.89466 8.20865 1.79066 8.09858C 1.68666 7.98988 1.52133 7.79149 1.29466 7.50342C 1.068 7.21535 0.865332 6.91912 0.687999 6.61611C 0.509333 6.31309 0.349333 5.94485 0.209333 5.5141C 0.0693332 5.08471 0 4.66484 0 4.25991C 0 2.92419 0.377333 1.88197 1.13467 1.12918C 1.88933 0.376394 2.93466 0 4.26799 0C 4.63733 0 5.01333 0.0665823 5.39733 0.19567C 5.78132 0.327476 6.13866 0.502764 6.46932 0.724252C 6.79866 0.94574 7.08399 1.15364 7.32132 1.34795C 7.55866 1.54226 7.78532 1.74745 7.99999 1.96622C 8.21465 1.74745 8.43999 1.54226 8.67865 1.34795C 8.91599 1.15364 9.20132 0.94574 9.53065 0.724252C 9.86132 0.502764 10.2187 0.327476 10.6027 0.19567C 10.9867 0.0665823 11.3626 0 11.732 0C 13.0653 0 14.1106 0.376394 14.8653 1.12918C 15.6213 1.88197 16 2.92419 16 4.25991C 16 5.59971 15.3186 6.96396 13.9546 8.35404L 8.39199 13.8138C 8.28532 13.9225 8.15465 13.9768 7.99999 13.9768Z"/>
</svg>
