<?xml version="1.0" encoding="UTF-8"?>
<svg width="14px" height="14px" viewBox="0 0 14 14" version="1.1" xmlns="http://www.w3.org/2000/svg" xmlns:xlink="http://www.w3.org/1999/xlink">
    <!-- Generator: Sketch 49 (51002) - http://www.bohemiancoding.com/sketch -->
    <title>card_clock_icon</title>
    <desc>Created with Sketch.</desc>
    <defs>
        <polygon id="path-1" points="5.596333e-05 0.11537931 13.8847336 0.11537931 13.8847336 13.9999839 5.596333e-05 13.9999839"></polygon>
    </defs>
    <g id="card_clock_icon" stroke="none" stroke-width="1" fill="none" fill-rule="evenodd" opacity="0.2">
        <g id="time_icon-copy">
            <g id="Group-3">
                <mask id="mask-2" fill="white">
                    <use xlink:href="#path-1"></use>
                </mask>
                <g id="Clip-2"></g>
                <path d="M6.94432184,12.2976161 L6.93949425,12.2976161 C4.04970115,12.2950414 1.7005977,9.94304138 1.70301149,7.05469655 C1.70558621,4.16651264 4.05501149,1.81837471 6.94158621,1.81837471 L6.9456092,1.81837471 C8.34432184,1.81934023 9.65967816,2.36566207 10.6493333,3.35644368 C11.6389885,4.34722529 12.1835402,5.66274253 12.1824138,7.06097241 C12.1812874,8.4592023 11.6348046,9.77455862 10.6437011,10.7645356 C9.65372414,11.7532253 8.34013793,12.2976161 6.94432184,12.2976161 M11.8670115,2.16966207 C10.556,0.854466667 8.81114943,0.125018391 6.95413793,0.115363218 C6.94190805,0.115363218 6.93016092,0.115363218 6.91793103,0.115363218 C3.12135632,0.115363218 0.0212413793,3.21692644 0.00016091954,7.0460069 C-0.0207586207,10.8572253 3.0882069,13.9768115 6.93048276,13.999823 C6.94464368,13.9999839 6.9588046,13.9999839 6.97296552,13.9999839 C8.80068966,13.9999839 10.523977,13.2848575 11.8291954,11.9835011 C13.144069,10.6726506 13.874,8.92747816 13.8846207,7.06934023 C13.8950805,5.22536322 13.1785057,3.48517931 11.8670115,2.16966207" id="Fill-1" fill="#000000" mask="url(#mask-2)"></path>
            </g>
            <path d="M7.95583708,7.08642006 C7.87906908,7.01033703 7.84584596,6.93409212 7.84616852,6.82401455 C7.85020045,5.76225163 7.84907151,4.70032683 7.84762001,3.63856391 C7.84745873,3.5532538 7.84520085,3.46438234 7.82246075,3.38344295 C7.73924167,3.08671915 7.46523154,2.91480389 7.15122463,2.95252164 C6.86737659,2.98651619 6.63916921,3.23111502 6.63594366,3.53140016 C6.6293313,4.15317656 6.63400834,4.77495295 6.63400834,5.39672935 L6.63239556,5.39672935 C6.63239556,5.99470956 6.63400834,6.5925279 6.63158918,7.19050811 C6.63078279,7.37116483 6.67755321,7.5323961 6.80512355,7.66108973 C7.38330267,8.24417709 7.96261072,8.82629319 8.54401539,9.40614298 C8.67577894,9.53742667 8.841572,9.5966743 9.0270409,9.57433503 C9.27524666,9.54422558 9.45249041,9.41116122 9.53812866,9.17336129 C9.62812139,8.92325858 9.56635218,8.70213216 9.38201223,8.51629532 C8.90801825,8.03826729 8.43370171,7.560563 7.95583708,7.08642006" id="Fill-4" fill="#000000"></path>
        </g>
    </g>
</svg>