<?xml version="1.0" encoding="UTF-8"?>
<svg width="13px" height="18px" viewBox="0 0 13 18" version="1.1" xmlns="http://www.w3.org/2000/svg" xmlns:xlink="http://www.w3.org/1999/xlink">
    <!-- Generator: Sketch 49 (51002) - http://www.bohemiancoding.com/sketch -->
    <title>card_map_icon</title>
    <desc>Created with Sketch.</desc>
    <defs>
        <polygon id="path-1" points="5.65376031e-05 2e-05 12.9926222 2e-05 12.9926222 17.89042 5.65376031e-05 17.89042"></polygon>
    </defs>
    <g id="card_map_icon" stroke="none" stroke-width="1" fill="none" fill-rule="evenodd">
        <g id="Page-1-Copy-2">
            <mask id="mask-2" fill="white">
                <use xlink:href="#path-1"></use>
            </mask>
            <g id="Clip-2"></g>
            <path d="M9.7461297,6.14892 C9.73662667,5.36972 9.50320848,4.66872 9.02983879,4.05072 C7.97460646,2.67292 6.02529737,2.38792 4.62815394,3.40792 C3.42859434,4.28392 2.94888929,5.85652 3.44324485,7.29272 C3.99877616,8.90732 5.67962465,9.82672 7.30068323,9.40272 C8.73286909,9.02812 9.74870343,7.67632 9.7461297,6.14892 M6.15398424,-8e-05 L6.84097414,-8e-05 C6.87007717,0.00532 6.8991802,0.01232 6.92848121,0.01592 C7.15556404,0.04352 7.38502263,0.05652 7.60913576,0.09972 C9.51211758,0.46612 10.9700408,1.49512 11.9983479,3.14572 C12.5526913,4.03552 12.8629257,5.01352 12.9625095,6.05872 C13.0026994,6.48052 13.0096287,6.90272 12.9401378,7.32352 C12.8356044,7.95732 12.6287156,8.55872 12.379657,9.14652 C11.8961903,10.28772 11.2775034,11.35432 10.6107075,12.39332 C9.44737818,14.20552 8.14863071,15.91532 6.77326505,17.56712 C6.68476808,17.67352 6.59389535,17.77792 6.49807313,17.89052 C6.46223879,17.84912 6.43234384,17.81592 6.40383475,17.78172 C6.16586303,17.49492 5.92531758,17.21052 5.69071152,16.92092 C4.44423071,15.38312 3.26427111,13.79592 2.20923677,12.11652 C1.57649333,11.10952 0.99205697,10.07572 0.541850909,8.96992 C0.333378182,8.45752 0.160541818,7.93352 0.0649175758,7.38632 C-0.0449612121,6.75752 -0.00477131313,6.12992 0.107285253,5.50772 C0.383071111,3.97792 1.08867111,2.68392 2.2383398,1.64732 C3.22645697,0.75652 4.38206505,0.22332 5.69823475,0.05212 C5.84988727,0.03232 6.00213374,0.01732 6.15398424,-8e-05" id="Fill-1" fill="#CCCCCC" mask="url(#mask-2)"></path>
        </g>
    </g>
</svg>