<?xml version="1.0" encoding="UTF-8"?>
<svg width="16px" height="14px" viewBox="0 0 16 14" version="1.1" xmlns="http://www.w3.org/2000/svg" xmlns:xlink="http://www.w3.org/1999/xlink">
    <!-- Generator: Sketch 49 (51002) - http://www.bohemiancoding.com/sketch -->
    <title>like_uns_icon</title>
    <desc>Created with Sketch.</desc>
    <defs></defs>
    <g id="like_uns_icon" stroke="none" stroke-width="1" fill="none" fill-rule="evenodd">
        <path d="M14.866015,1.140416 C15.621835,1.892656 15.999859,2.936064 15.999859,4.270464 C15.999859,5.611424 15.318272,6.976336 13.955326,8.365536 L8.392677,13.825168 C8.285669,13.934416 8.154626,13.98888 7.999966,13.98888 C7.845097,13.98888 7.714073,13.934416 7.607065,13.825168 L2.035695,8.347152 C1.97613,8.298768 1.894221,8.219872 1.789987,8.110624 C1.685753,8.001376 1.520681,7.802736 1.294543,7.514688 C1.068196,7.226496 0.865884,6.930736 0.687417,6.62744 C0.508722,6.324144 0.349388,5.95704 0.209624,5.526304 C0.06986,5.095712 -0.000117,4.677104 -0.000117,4.270464 C-0.000117,2.936064 0.377888,1.892656 1.133727,1.140416 C1.889756,0.38816 2.934262,0.012032 4.267644,0.012032 C4.636719,0.012032 5.013261,0.077152 5.397232,0.207728 C5.781203,0.338128 6.138175,0.514144 6.468528,0.735424 C6.7989,0.957024 7.083102,1.164688 7.321362,1.358736 C7.559413,1.552944 7.785532,1.759136 7.999966,1.977472 C8.214191,1.759136 8.440329,1.552944 8.678361,1.358736 C8.916412,1.164688 9.200823,0.957024 9.531195,0.735424 C9.861567,0.514144 10.21852,0.338128 10.602491,0.207728 C10.986481,0.077152 11.362795,0.012032 11.732098,0.012032 C13.065271,0.012032 14.109967,0.38816 14.866015,1.140416 Z M13.178435,7.510096 C14.297383,6.369584 14.857085,5.28976 14.857085,4.270464 C14.857085,3.77936 14.793055,3.345488 14.664976,2.96936 C14.536916,2.593248 14.373326,2.294544 14.173997,2.073104 C13.974459,1.851648 13.731962,1.671216 13.446259,1.531632 C13.160556,1.392208 12.880819,1.298208 12.607048,1.249664 C12.333258,1.200944 12.041399,1.176832 11.732098,1.176832 C11.42236,1.176832 11.089214,1.25408 10.732052,1.408768 C10.374871,1.563456 10.046,1.757664 9.74542,1.991248 C9.444821,2.224832 9.187428,2.443152 8.972994,2.646384 C8.758769,2.849632 8.580302,3.036128 8.437346,3.205904 C8.330338,3.339424 8.184399,3.406192 7.999966,3.406192 C7.815324,3.406192 7.669613,3.339424 7.562396,3.205904 C7.41944,3.036128 7.240954,2.849632 7.026729,2.646384 C6.812314,2.443152 6.554902,2.224832 6.254322,1.991248 C5.953723,1.757664 5.624852,1.563456 5.26769,1.408768 C4.910509,1.25408 4.577154,1.176832 4.267644,1.176832 C3.958115,1.176832 3.666465,1.200944 3.392694,1.249664 C3.118904,1.298208 2.839167,1.392208 2.553464,1.531632 C2.26778,1.671216 2.025055,1.851648 1.825726,2.073104 C1.626188,2.294544 1.462598,2.593248 1.334747,2.96936 C1.206687,3.345488 1.142657,3.77936 1.142657,4.270464 C1.142657,5.28976 1.699148,6.36664 2.812358,7.500912 L7.999966,12.596736 L13.178435,7.510096 Z" id="Combined-shape-1021" fill="#A3A3A3"></path>
    </g>
</svg>