<svg width="61" height="62" viewBox="0 0 61 62" version="1.1" xmlns="http://www.w3.org/2000/svg" xmlns:xlink="http://www.w3.org/1999/xlink">
<g id="Canvas" fill="none">
<g id="Group 4">
<g id="Group 2" filter="url(#filter0_d)">
<g id="Oval Copy" transform="translate(8 1)">
<path fill-rule="evenodd" clip-rule="evenodd" d="M 22.5 45C 34.9264 45 45 34.9264 45 22.5C 45 10.0736 34.9264 0 22.5 0C 10.0736 0 0 10.0736 0 22.5C 0 34.9264 10.0736 45 22.5 45Z" fill="white"/>
<path d="M 22.5 45C 34.9264 45 45 34.9264 45 22.5C 45 10.0736 34.9264 0 22.5 0C 10.0736 0 0 10.0736 0 22.5C 0 34.9264 10.0736 45 22.5 45Z" stroke="#FF0101" stroke-width="2"/>
</g>
</g>
<g id="Page 1" opacity="0.8">
<g id="Group 3">
<mask id="mask0" mask-type="alpha" maskUnits="userSpaceOnUse" x="18" y="10" width="26" height="27">
<path id="Clip 2" fill-rule="evenodd" clip-rule="evenodd" d="M 0 0L 25.6808 0L 25.6808 25.5471L 0 25.5471L 0 0Z" transform="translate(18 10.453)" fill="white"/>
</mask>
<g mask="url(#mask0)">
<path id="Fill 1" fill-rule="evenodd" clip-rule="evenodd" d="M 8.91528 18.6597C 9.42662 18.6597 9.88162 18.6669 10.3359 18.6532C 10.4096 18.6503 10.5071 18.573 10.5475 18.503C 10.7331 18.1888 10.9021 17.866 11.0762 17.5453C 12.7821 14.3935 14.488 11.2417 16.1931 8.08924C 16.399 7.70718 16.6012 7.32368 16.8222 6.9084C 16.2986 6.9084 15.8204 6.90335 15.3423 6.91418C 15.2817 6.91563 15.2037 6.98568 15.1683 7.04418C 15.0361 7.26735 14.9177 7.49846 14.7949 7.72668C 12.9951 11.0662 11.1968 14.4058 9.39773 17.7461C 9.24245 18.0357 9.09078 18.3282 8.91528 18.6597ZM 13.905 15.9138C 13.9209 16.5927 14.1094 17.4016 14.8288 17.9613C 15.8666 18.7688 17.0388 18.8287 18.2109 18.3557C 20.0938 17.5959 20.2649 14.7756 18.9064 13.5637C 18.2853 13.009 17.5436 12.8516 16.7419 12.861C 15.0035 12.8834 13.9007 13.9956 13.905 15.9138ZM 8.86759 12.7036C 9.01059 12.6934 9.18176 12.6913 9.35076 12.6689C 10.3886 12.5302 11.1505 12.0117 11.5564 11.028C 11.7644 10.5232 11.8092 9.988 11.7695 9.45067C 11.6864 8.33339 11.1823 7.48983 10.125 7.03772C 9.59126 6.8095 9.0207 6.77411 8.45087 6.82683C 7.22743 6.9395 6.40193 7.56711 6.04154 8.76167C 5.75193 9.72295 5.86531 10.6452 6.38026 11.5003C 6.9342 12.4212 7.83482 12.6797 8.86759 12.7036ZM 2.07219 19.2014C 2.12635 18.5174 2.18269 17.7237 2.25635 16.9314C 2.2773 16.7039 2.23541 16.5414 2.05847 16.3768C 1.46263 15.8243 0.885577 15.2516 0.305633 14.6832C -0.0525896 14.3314 -0.093034 13.9956 0.169133 13.5702C 0.611855 12.8516 1.05747 12.1352 1.50885 11.4223C 1.58902 11.2945 1.60635 11.1862 1.5558 11.0396C 1.27991 10.2429 1.01485 9.44272 0.749077 8.64178C 0.588022 8.15645 0.718022 7.80906 1.16291 7.55339C 1.87213 7.14461 2.5828 6.738 3.2978 6.33789C 3.46969 6.24111 3.57008 6.13567 3.59824 5.91684C 3.70658 5.09711 3.84597 4.281 3.9738 3.46272C 4.04963 2.97522 4.34647 2.71161 4.88091 2.69067C 5.70063 2.65817 6.52108 2.63434 7.34152 2.61917C 7.53147 2.61556 7.65135 2.54984 7.76258 2.396C 8.24791 1.72578 8.74552 1.06422 9.23952 0.399058C 9.52913 0.00905785 9.9148 -0.0949422 10.3517 0.110169C 11.1151 0.468391 11.8764 0.830947 12.6347 1.2C 12.7799 1.27006 12.8976 1.27439 13.0442 1.20289C 13.7946 0.837447 14.5493 0.479947 15.3047 0.123169C 15.7879 -0.105053 16.1317 -0.0198311 16.4524 0.409891C 16.9521 1.08011 17.4512 1.75034 17.943 2.42706C 18.0391 2.55995 18.1431 2.61339 18.3049 2.617C 19.1094 2.63434 19.9132 2.65961 20.7171 2.68561C 21.3729 2.708 21.6271 2.94634 21.7246 3.59778C 21.8474 4.41606 21.9752 5.23361 22.1153 6.04828C 22.1312 6.13856 22.228 6.23822 22.3132 6.28806C 23.0347 6.70911 23.7627 7.11934 24.4878 7.53389C 24.9674 7.80834 25.101 8.15645 24.9247 8.68006C 24.6626 9.46295 24.4004 10.2458 24.1289 11.0258C 24.0761 11.1768 24.0899 11.2916 24.1758 11.4267C 24.6113 12.1106 25.0374 12.8011 25.4664 13.4893C 25.7885 14.0043 25.7531 14.3213 25.3227 14.7409C 24.7348 15.3129 24.1411 15.8799 23.5605 16.4598C 23.4825 16.5378 23.4247 16.683 23.4312 16.7928C 23.4781 17.5706 23.5547 18.347 23.5987 19.1256C 23.6125 19.3689 23.6175 19.6484 23.5142 19.8543C 23.4211 20.0384 23.1921 20.2067 22.9877 20.2724C 22.1716 20.5389 21.3425 20.7657 20.5156 20.9983C 20.3784 21.0373 20.3004 21.0972 20.2447 21.2337C 19.9335 21.9993 19.6099 22.7598 19.2921 23.5224C 19.069 24.0598 18.7642 24.2302 18.203 24.1183C 17.3927 23.9565 16.5809 23.7983 15.7742 23.6221C 15.5987 23.5831 15.4853 23.6264 15.3567 23.7304C 14.7017 24.2642 14.0423 24.7914 13.3822 25.3179C 13.0023 25.6205 12.6831 25.6248 12.3025 25.3229C 11.6481 24.8029 10.996 24.2786 10.3496 23.7492C 10.2001 23.6264 10.065 23.5838 9.86569 23.6286C 9.0828 23.8027 8.29413 23.95 7.50835 24.1118C 6.95224 24.2266 6.63013 24.0591 6.40841 23.5326C 6.08702 22.7706 5.75985 22.0116 5.44497 21.2482C 5.38574 21.1059 5.30485 21.0358 5.15535 20.9939C 4.36741 20.7766 3.58163 20.5469 2.79585 20.3194C 2.2253 20.1533 2.04763 19.9041 2.07219 19.2014Z" transform="translate(18 10.453)" fill="#969696"/>
</g>
</g>
<path id="Fill 4" fill-rule="evenodd" clip-rule="evenodd" d="M 0.450552 0.437271C 0.609079 0.158709 0.995266 0.00134765 1.54832 8.40922e-06C 2.08708 -0.00133083 2.43989 0.157369 2.62583 0.422539C 3.13121 1.14506 3.12287 1.87294 2.61153 2.59479C 2.42678 2.85661 2.07158 2.99589 1.55786 2.99991C 1.04175 3.00393 0.648413 2.87067 0.492269 2.60818C 0.280105 2.24994 0.159719 1.87562 0 1.51C 0.154952 1.131 0.257458 0.7761 0.450552 0.437271Z" transform="translate(26 19)" fill="#969696"/>
<path id="Fill 6" fill-rule="evenodd" clip-rule="evenodd" d="M 2.59706 2.52624C 2.43877 2.81188 2.06221 2.99384 1.48898 2.99986C 0.895371 3.00588 0.522414 2.82258 0.332937 2.52959C -0.107176 1.84793 -0.115571 1.15757 0.335335 0.477922C 0.570382 0.123379 0.943339 -0.00706536 1.51777 0.000293072C 2.085 0.0076515 2.45795 0.152813 2.64503 0.514714C 2.80932 0.837147 2.88008 1.1743 3 1.52884C 2.87048 1.85796 2.77575 2.19913 2.59706 2.52624Z" transform="translate(34 25)" fill="#969696"/>
</g>
</g>
</g>
<defs>
<filter id="filter0_d" x="0" y="0" width="61" height="62" filterUnits="userSpaceOnUse" color-interpolation-filters="sRGB">
<feFlood flood-opacity="0" result="BackgroundImageFix"/>
<feColorMatrix in="SourceAlpha" type="matrix" values="0 0 0 0 0 0 0 0 0 0 0 0 0 0 0 0 0 0 255 0"/>
<feOffset dy="8"/>
<feGaussianBlur stdDeviation="3.5"/>
<feColorMatrix type="matrix" values="0 0 0 0 0 0 0 0 0 0 0 0 0 0 0 0 0 0 0.2 0"/>
<feBlend mode="normal" in2="BackgroundImageFix" result="effect1_dropShadow"/>
<feBlend mode="normal" in="SourceGraphic" in2="effect1_dropShadow" result="shape"/>
</filter>
</defs>
</svg>
