<svg width="14" height="13" viewBox="0 0 14 13" version="1.1" xmlns="http://www.w3.org/2000/svg" xmlns:xlink="http://www.w3.org/1999/xlink">
<title>Page 1</title>
<desc>Created using Figma</desc>
<g id="Canvas" transform="translate(-10225 -51)">
<rect x="10225" y="51" width="14" height="13" fill="#FFFFFF"/>
<g id="header_unassigned">
<g id="&#208;&#159;&#209;&#128;&#209;&#143;&#208;&#188;&#208;&#190;&#209;&#131;&#208;&#179;&#208;&#190;&#208;&#187;&#209;&#140;&#208;&#189;&#208;&#184;&#208;&#186; 1" filter="url(#filter0_d)">
<use xlink:href="#path0_fill" transform="translate(8911.07 -1.99999)" fill="#FFFFFF"/>
</g>
<g id="regist_icon">
<g id="Page 1">
<g id="Fill 1">
<use xlink:href="#path1_fill" transform="translate(10225 54)" fill="#B6B6B6"/>
</g>
<g id="Group 5">
<mask id="mask0_outline" mask-type="alpha">
<g id="Clip 4">
<use xlink:href="#path2_fill" transform="matrix(-1 0 0 1 10239 51.1605)" fill="#FFFFFF"/>
</g>
</mask>
<g id="Fill 3" mask="url(#mask0_outline)">
<use xlink:href="#path3_fill" transform="matrix(-1 0 0 1 10239 51.1604)" fill="#B6B6B6"/>
</g>
</g>
</g>
</g>
</g>
</g>
<defs>
<filter id="filter0_d" filterUnits="userSpaceOnUse" x="8910" y="-1" width="1406" height="116" color-interpolation-filters="sRGB">
<feFlood flood-opacity="0" result="BackgroundImageFix"/>
<feColorMatrix in="SourceAlpha" type="matrix" values="0 0 0 0 0 0 0 0 0 0 0 0 0 0 0 0 0 0 255 0"/>
<feOffset dx="0" dy="2"/>
<feGaussianBlur stdDeviation="1.5"/>
<feColorMatrix type="matrix" values="0 0 0 0 0 0 0 0 0 0 0 0 0 0 0 0 0 0 0.2 0"/>
<feBlend mode="normal" in2="BackgroundImageFix" result="effect1_dropShadow"/>
<feBlend mode="normal" in="SourceGraphic" in2="effect1_dropShadow" result="shape"/>
</filter>
<path id="path0_fill" fill-rule="evenodd" d="M 1.93462 1.99999L 1401.93 1.99999L 1401.93 112L 1.93462 112L 1.93462 1.99999Z"/>
<path id="path1_fill" fill-rule="evenodd" d="M 6.4133 0.563229C 5.65323 -0.193273 5.83086 -0.183603 5.04034 0.567495C 4.74898 0.8445 4.75496 1.04187 5.04575 1.3058C 5.43005 1.65475 5.78503 2.03628 6.23267 2.48392L 5.67871 2.48392C 4.11332 2.48392 2.54793 2.47837 0.982675 2.48591C -0.0575035 2.49075 -0.00170851 2.31243 0.00142284 3.48501C 0.00298852 4.03205 0.02747 4.05437 0.595668 4.05466C 2.30482 4.05523 4.01383 4.05437 5.72269 4.0558C 5.85592 4.05594 5.98928 4.06888 6.12237 4.07599C 6.14286 4.11353 6.16307 4.15107 6.18343 4.18861C 5.91712 4.42694 5.639 4.65346 5.38635 4.90558C 4.5927 5.69777 4.60337 5.50054 5.40827 6.3354C 5.63672 6.5723 5.81322 6.58738 6.05163 6.34464C 7.03686 5.34171 8.03463 4.35086 9.02769 3.3556L 9.02769 3.18326C 8.15646 2.30958 7.2878 1.43363 6.4133 0.563229Z"/>
<path id="path2_fill" fill-rule="evenodd" d="M 0 0L 7.76456 0L 7.76456 12.1595L 0 12.1595L 0 0Z"/>
<path id="path3_fill" fill-rule="evenodd" d="M 7.15377 10.686C 5.41513 10.6851 3.67665 10.6857 1.93802 10.6857L 1.42334 10.6857L 1.42334 1.47489L 1.94878 1.47489C 3.70294 1.47489 5.4571 1.47667 7.21111 1.47165C 7.36115 1.47116 7.63232 1.44766 7.64108 1.39594C 7.70503 1.02002 7.75484 0.629835 7.71794 0.253913C 7.70795 0.152273 7.38559 0.013511 7.20573 0.012052C 5.00161 -0.00448271 2.79719 0.000218346 0.592919 0.0020015C 0.0352032 0.00248782 0.000614902 0.0430141 0.000461176 0.659176C -0.000153725 4.27672 -0.000153725 7.89442 0.000461176 11.5121C 0.000614902 12.1171 0.0379702 12.1583 0.603065 12.1586C 2.72986 12.1602 4.8565 12.1594 6.98329 12.1592C 7.76975 12.1592 7.76975 12.1589 7.7636 11.3105C 7.75914 10.7039 7.74392 10.6864 7.15377 10.686Z"/>
</defs>
</svg>
