<svg xmlns="http://www.w3.org/2000/svg" xmlns:xlink="http://www.w3.org/1999/xlink" style="display:none"><defs><path id="a" fill-rule="evenodd" d="M6.135 5.327c.408.241.85.368 1.326.378a4.78 4.78 0 0 0 .635-.028c.112-.013.218-.071.33-.11-.016.018-.034.042-.055.062-.875.815-1.74 1.64-2.63 2.44a3.55 3.55 0 0 1-1.842.876c-.752.121-1.472.049-2.154-.284A3.09 3.09 0 0 1 .178 6.983c-.176-.439-.203-.896-.16-1.35.05-.518.23-1.01.554-1.44a5.91 5.91 0 0 1 .643-.728c.854-.81 1.723-1.606 2.582-2.411.535-.5 1.164-.848 1.906-.983.836-.152 1.644-.07 2.392.347.28.156.554.32.74.572.353.479.113 1.118-.475 1.282a.915.915 0 0 1-.883-.194c-.5-.422-1.071-.49-1.692-.277a1.978 1.978 0 0 0-.708.445c-.868.81-1.736 1.618-2.606 2.426-.312.29-.563.613-.633 1.03-.068.396-.005.768.273 1.093.227.265.513.443.873.5.354.055.698.014 1.023-.14.303-.144.548-.353.784-.575.447-.42.897-.837 1.344-1.253z"/><path id="b" fill-rule="evenodd" d="M.558 3.427c.133-.12.268-.238.399-.36C1.672 2.402 2.389 1.74 3.1 1.07A3.87 3.87 0 0 1 4.878.094c.42-.1.847-.115 1.282-.07.49.05.936.204 1.347.447.417.247.75.574 1.015.967.224.332.37.693.433 1.072.082.484.053.969-.102 1.443-.15.46-.368.892-.724 1.237-.814.79-1.649 1.563-2.478 2.34-.343.322-.671.66-1.085.91a3.784 3.784 0 0 1-1.53.53c-.702.083-1.375-.005-2.004-.314-.328-.16-.637-.352-.861-.635-.381-.482-.08-1.144.462-1.286.327-.086.624-.041.873.176.368.323.804.452 1.296.396.343-.039.664-.16.915-.387.848-.772 1.69-1.55 2.529-2.329.214-.2.429-.403.613-.626.399-.484.468-1.262.02-1.773-.447-.512-1.145-.623-1.753-.402a2.206 2.206 0 0 0-.74.47c-.485.445-.966.895-1.445 1.346-.067.063-.103.053-.188.015a4.82 4.82 0 0 0-.743-.27c-.204-.052-.422-.064-.634-.08-.257-.021-.562.052-.818.156z"/><path id="a" d="M0 .115h13.885V14H0z"/><path id="a" d="M0 0h12.993v17.89H0z"/><path d="M13 0c7.18 0 13 5.82 13 13s-5.82 13-13 13S0 20.18 0 13 5.82 0 13 0z" id="a"/><path id="c" d="M0 0h14v14H0z"/><path id="e" d="M-8-9h40v42H-8z"/><path id="a" d="M0 .16h7.765v12.16H0z"/><path id="a" d="M0 .16h7.765v12.16H0z"/><path id="a" d="M0 .453h25.68V26H0z"/><path id="b" fill-rule="evenodd" d="M0 0h1400v1968H0V0z"/><path id="c" fill-rule="evenodd" d="M0 5a5 5 0 0 1 5-5h1014a5 5 0 0 1 5 5v39a5 5 0 0 1-5 5H5a5 5 0 0 1-5-5V5z"/><path id="d" fill-rule="evenodd" d="M3.804 2h127.428c1.401 0 2.536 1.79 2.536 4v26c0 2.21-1.135 4-2.536 4H3.804c-1.4 0-2.536-1.79-2.536-4V6c0-2.21 1.135-4 2.536-4z"/><path id="e" d="M3.804 3h127.428V1H3.804v2zm127.428 0c.238 0 .598.154.949.707.342.54.587 1.348.587 2.293h2c0-1.265-.323-2.457-.898-3.364-.568-.895-1.475-1.636-2.638-1.636v2zm1.536 3v26h2V6h-2zm0 26c0 .944-.245 1.752-.587 2.293-.351.553-.711.707-.949.707v2c1.163 0 2.07-.741 2.638-1.636.575-.907.898-2.1.898-3.364h-2zm-1.536 3H3.804v2h127.428v-2zM3.804 35c-.238 0-.598-.154-.949-.707-.343-.54-.587-1.349-.587-2.293h-2c0 1.265.323 2.457.898 3.364C1.733 36.259 2.641 37 3.804 37v-2zm-1.536-3V6h-2v26h2zm0-26c0-.944.244-1.753.587-2.293.35-.553.71-.707.949-.707V1c-1.163 0-2.07.741-2.638 1.636C.591 3.543.268 4.736.268 6h2z"/><path id="f" fill-rule="evenodd" d="M12.47 12.835a6.853 6.853 0 0 0-1.043 0c-.282.02-.355-.066-.351-.349.017-1.18.009-2.362.006-3.543-.002-.908-.458-1.364-1.373-1.365-1.817-.003-3.635-.004-5.453 0-.91.002-1.365.458-1.367 1.366-.003 1.151-.011 2.303.006 3.453.005.315-.038.475-.408.44-.419-.042-.986.138-1.227-.075-.28-.247-.084-.824-.085-1.256-.008-3.287.005-6.573-.016-9.86-.003-.417.119-.497.5-.479.665.032 1.333.024 1.999.002.307-.01.417.064.41.394-.023.984-.013 1.968-.008 2.953.005.872.444 1.312 1.313 1.315 1.09.004 2.18.005 3.271 0 .8-.004 1.263-.47 1.267-1.27.004-.995 0-1.99 0-2.976.927.894 1.83 1.768 2.74 2.634.136.13.161.271.16.445-.002 2.605-.006 5.21.005 7.814 0 .272-.054.38-.345.357zm-8.118 0c.877-.015 1.754-.006 2.631-.006.862 0 1.724-.013 2.586.007.285.006.351-.078.347-.353a143.924 143.924 0 0 1-.002-3.402c.003-.25-.059-.34-.326-.338-1.74.011-3.478.012-5.217 0-.275-.003-.32.097-.318.34.01 1.149.011 2.298 0 3.447-.003.234.057.308.3.304zM5.56 1.168c.968.018 1.936.012 2.904.003.209-.002.289.046.286.272-.011.983-.012 1.966 0 2.949.003.231-.085.272-.29.27-.968-.009-1.936-.01-2.903.001-.23.003-.32-.05-.31-.297.02-.499.006-.998.006-1.497 0-.454.011-.908-.005-1.361-.01-.24.036-.345.312-.34zm8.044 2.253A275.803 275.803 0 0 1 10.521.341c-.227-.23-.465-.342-.797-.341-2.8.01-5.6.005-8.4.007C.418.007.002.43 0 1.347-.001 3.223 0 5.1 0 6.977c0 1.906-.002 3.813 0 5.72.001.873.433 1.301 1.315 1.302 3.784.002 7.568.001 11.352 0 .867 0 1.327-.45 1.328-1.3.002-2.769-.002-5.538.004-8.307 0-.387-.116-.695-.396-.97z"/></defs><symbol id="card__dealer-link" viewBox="0 0 14 14"><use xlink:href="#a" transform="translate(0 5)" opacity=".1"/><use xlink:href="#b" transform="translate(5)" opacity=".1"/></symbol><symbol id="coupon__address-clock-icon" viewBox="0 0 14 14"><title>card_clock_icon</title><g fill="none" fill-rule="evenodd" opacity=".2"><mask id="b" fill="#fff"><use xlink:href="#a"/></mask><path d="M6.944 12.298H6.94a5.246 5.246 0 0 1-5.236-5.243 5.246 5.246 0 0 1 5.239-5.237h.004a5.206 5.206 0 0 1 3.703 1.538 5.202 5.202 0 0 1 1.533 3.705 5.207 5.207 0 0 1-1.538 3.704 5.202 5.202 0 0 1-3.7 1.533M11.867 2.17A6.945 6.945 0 0 0 6.954.115h-.036C3.12.115.02 3.217 0 7.046c-.02 3.811 3.088 6.93 6.93 6.954h.043a6.836 6.836 0 0 0 4.856-2.016 6.952 6.952 0 0 0 2.056-4.915 6.841 6.841 0 0 0-2.018-4.9" fill="#000" mask="url(#b)"/><path d="M7.956 7.086a.336.336 0 0 1-.11-.262c.004-1.062.003-2.124.002-3.185a.96.96 0 0 0-.026-.256c-.083-.296-.357-.468-.67-.43a.59.59 0 0 0-.516.578c-.007.622-.002 1.244-.002 1.866h-.002c0 .598.002 1.196 0 1.794-.001.18.046.341.173.47.578.583 1.158 1.165 1.739 1.745.132.131.298.19.483.168a.583.583 0 0 0 .511-.4c.09-.25.028-.472-.156-.658a247.9 247.9 0 0 0-1.426-1.43" fill="#000"/></g></symbol><symbol id="coupon__address-map-icon" viewBox="0 0 13 18"><title>card_map_icon</title><g fill="none" fill-rule="evenodd"><mask id="b" fill="#fff"><use xlink:href="#a"/></mask><path d="M9.746 6.149A3.429 3.429 0 0 0 9.03 4.05a3.177 3.177 0 0 0-4.402-.643c-1.2.876-1.68 2.449-1.185 3.885C4 8.907 5.68 9.827 7.301 9.403c1.432-.375 2.448-1.727 2.445-3.254M6.154-.001h.687c.03.006.058.013.087.017.228.028.457.04.681.084C9.512.466 10.97 1.495 12 3.146a6.62 6.62 0 0 1 .964 2.913c.04.422.047.844-.023 1.265-.104.633-.311 1.235-.56 1.823-.484 1.14-1.102 2.207-1.77 3.246-1.163 1.813-2.461 3.522-3.837 5.174-.088.107-.18.21-.275.324-.036-.042-.066-.075-.094-.11-.238-.286-.479-.57-.713-.86-1.247-1.538-2.427-3.125-3.482-4.804C1.576 11.11.992 10.076.542 8.97a7.743 7.743 0 0 1-.477-1.584c-.11-.628-.07-1.256.042-1.878.276-1.53.982-2.824 2.131-3.86A6.266 6.266 0 0 1 5.698.051c.152-.02.304-.035.456-.052" fill="#CCC" mask="url(#b)"/></g></symbol><symbol id="coupon__address-phone-icon" viewBox="0 0 14 14"><title>card_phone_icon</title><g fill="#CCC" fill-rule="evenodd"><path d="M2.7 0c.11.125.235.24.331.376a20.431 20.431 0 0 1 1.722 2.901c.131.269.128.286-.096.486-.292.26-.599.504-.884.77-.48.451-.456.41-.26 1.01.368 1.13.98 2.123 1.759 3.015.612.701 1.306 1.3 2.151 1.708.416.201.85.343 1.313.384.243.021.451-.025.631-.21.276-.283.561-.557.854-.823.29-.264.316-.266.656-.081a21.496 21.496 0 0 1 2.802 1.806c.058.044.112.093.165.143.141.136.151.172.003.306-.3.272-.598.547-.92.789-.534.4-1.09.771-1.63 1.164-.28.204-.583.236-.916.205-.915-.088-1.758-.396-2.565-.816-1.195-.621-2.243-1.444-3.22-2.363C3.4 9.644 2.328 8.414 1.466 7.01.85 6 .353 4.94.098 3.778.06 3.61.032 3.44 0 3.272v-.218c.154-.217.298-.442.463-.65C1.131 1.558 1.79.702 2.618 0h.081zM7.507 0c.25.035.502.065.752.107 2.62.444 4.774 2.469 5.383 5.052.114.488.178.981.19 1.5l-1.19.169c-.015-1.564-.537-2.907-1.634-4.004C9.91 1.728 8.568 1.205 7 1.19L7.18 0h.327z"/><path d="M7 4.212l.167-1.18c2.169-.302 4.355 1.615 4.098 4.085l-1.19.17c.131-.9-.083-1.695-.726-2.34C8.705 4.3 7.912 4.08 7 4.212"/></g></symbol><symbol id="coupon__edit-btn-icon" viewBox="0 0 15 15"><g fill="none"><mask id="a" maskUnits="userSpaceOnUse" x="0" y="3" width="12" height="12"><path fill-rule="evenodd" clip-rule="evenodd" d="M0 0h11.928v11.87H0V0z" transform="translate(0 3.026)" fill="#fff"/></mask><g mask="url(#a)"><path fill-rule="evenodd" clip-rule="evenodd" d="M0 14.336c-.003-.122.043-.23.076-.342.287-.98.576-1.958.865-2.938l.432-1.464a.558.558 0 0 1 .254-.33.338.338 0 0 0 .063-.05c.45-.443.897-.888 1.345-1.333l2.228-2.207 1.065-1.056c.527-.524 1.056-1.047 1.582-1.571.03-.028.042-.022.067.003.231.232.462.464.695.695.028.028.03.04 0 .069L5.378 7.095l-2.947 2.939a.157.157 0 0 0-.043.077l-.546 1.869-.21.714c-.008.027-.004.045.017.066l.49.488c.017.018.033.029.061.02.831-.243 1.663-.484 2.496-.726a.155.155 0 0 0 .063-.04c.652-.655 1.305-1.31 1.958-1.962l3.304-3.314 1.031-1.037c.026-.027.04-.027.066 0l.79.79c.03.027.024.04-.002.065l-1.522 1.508-2.21 2.19-2.167 2.148-.136.134a.832.832 0 0 0-.174.224.53.53 0 0 1-.357.273c-.248.068-.495.142-.742.214-.767.226-1.533.45-2.298.677-.514.152-1.029.303-1.542.456-.28.083-.55-.017-.688-.26a.546.546 0 0 1-.07-.272z" fill="#A3A3A3"/></g><path fill-rule="evenodd" clip-rule="evenodd" d="M4 11.85l-.087-.585c-.01-.073-.022-.145-.03-.218-.005-.031-.018-.044-.05-.051-.287-.06-.573-.122-.859-.184-.006-.001-.012-.004-.03-.012.095-.092.187-.178.276-.267l3.258-3.265c.936-.939 1.873-1.878 2.808-2.818.031-.032.046-.03.076 0 .332.335.665.668 1 1 .03.029.028.042 0 .07-.429.425-.857.852-1.285 1.279L5.7 10.166 4.04 11.822c-.01.01-.018.023-.026.034A.196.196 0 0 0 4 11.85z" fill="#A3A3A3"/><mask id="b" maskUnits="userSpaceOnUse" x="10" y="0" width="5" height="5"><path fill-rule="evenodd" clip-rule="evenodd" d="M0 0h4.796v4.827H0V0z" transform="translate(10.098)" fill="#fff"/></mask><g mask="url(#b)"><path fill-rule="evenodd" clip-rule="evenodd" d="M13.921 4.828l-.554-.552-1.4-1.407-1.848-1.854c-.028-.03-.027-.042 0-.07.2-.202.392-.413.599-.608.276-.26.614-.36.99-.332.359.027.656.18.909.436.62.623 1.242 1.244 1.865 1.865.219.219.359.479.399.786.055.412-.056.779-.335 1.088-.201.222-.416.433-.625.648z" fill="#A3A3A3"/></g><g><path fill-rule="evenodd" clip-rule="evenodd" d="M9.433 1.509l.016.014.024.024 3.939 3.939c.017.018.043.028.008.06-.286.262-.572.525-.856.79-.034.032-.053.03-.086-.003-1.306-1.307-2.611-2.614-3.92-3.92-.03-.03-.027-.042.002-.07l.84-.806c.01-.01.022-.018.033-.028z" fill="#A3A3A3"/></g></g></symbol><symbol id="coupon__gallery" viewBox="0 0 19 14"><g fill="none"><mask id="a" maskUnits="userSpaceOnUse" x="0" y="0" width="19" height="14"><path fill-rule="evenodd" clip-rule="evenodd" d="M0 0h17.947v14H0V0z" transform="translate(.712)" fill="#fff"/></mask><g mask="url(#a)"><path fill-rule="evenodd" clip-rule="evenodd" d="M15.612 4.992a.61.61 0 0 0 .63.604.618.618 0 0 0 .623-.616.624.624 0 0 0-.635-.606.617.617 0 0 0-.618.618zM9.694 3.501C7.227 3.49 5.221 5.437 5.201 7.863c-.02 2.4 2.007 4.385 4.483 4.388 2.467.004 4.474-1.952 4.487-4.371.012-2.402-1.998-4.367-4.477-4.379zm-8.982 8.99V4.136c.01-.02.023-.04.028-.062.21-.903.907-1.447 1.853-1.448H4.61c.35-.002.656-.208.767-.525.178-.505.347-1.013.522-1.519.029-.082.066-.164.113-.239.113-.18.307-.255.49-.343h6.365c.256.112.493.246.59.528.167.494.337.987.502 1.481.136.41.42.616.858.617.715.001 1.431-.016 2.146.01.624.022 1.109.323 1.424.847.12.2.182.434.27.653v8.355c-.01.03-.023.06-.031.09-.127.512-.4.925-.885 1.174-.2.103-.42.165-.631.245H2.26c-.026-.01-.051-.023-.078-.029-.533-.119-.96-.387-1.22-.864-.105-.194-.168-.41-.25-.616z" fill="#fff" fill-opacity=".7"/></g><g><path fill-rule="evenodd" clip-rule="evenodd" d="M9.692 11C8.05 11.008 6.7 9.663 6.694 8.012A3.004 3.004 0 0 1 9.67 5c1.645-.012 3.004 1.343 3.007 2.998A2.998 2.998 0 0 1 9.692 11z" fill="#fff" fill-opacity=".7"/></g></g></symbol><symbol id="coupon__take-score-no" viewBox="0 0 14 12"><path fill-rule="evenodd" clip-rule="evenodd" d="M12.723 8.968L9.747 6.003l2.976-2.965a.931.931 0 0 0 .284-.685.932.932 0 0 0-.284-.686L11.346.296a.94.94 0 0 0-.688-.283c-.27 0-.5.094-.689.283L6.993 3.26 4.017.296a.94.94 0 0 0-.689-.283c-.27 0-.5.094-.688.283L1.263 1.667a.932.932 0 0 0-.284.686c0 .269.095.497.284.685l2.976 2.965-2.976 2.965a.932.932 0 0 0-.284.686c0 .269.095.497.284.685l1.377 1.372a.938.938 0 0 0 .688.282c.27 0 .5-.094.689-.282l2.976-2.965 2.976 2.965a.938.938 0 0 0 .689.282c.27 0 .499-.094.688-.282l1.377-1.372a.932.932 0 0 0 .284-.685.933.933 0 0 0-.284-.686z" fill="#969696"/></symbol><symbol id="coupon__take-score-yes" viewBox="0 0 17 11"><path fill-rule="evenodd" clip-rule="evenodd" d="M15.732 1.535L14.415.277a.919.919 0 0 0-.658-.258.918.918 0 0 0-.659.258l-6.35 6.074L3.9 3.624a.918.918 0 0 0-.658-.26.918.918 0 0 0-.659.26L1.268 4.88a.836.836 0 0 0-.271.628c0 .247.09.456.27.629l3.505 3.346 1.317 1.257c.18.173.4.26.659.26a.917.917 0 0 0 .658-.26l1.316-1.257 7.01-6.692a.837.837 0 0 0 .27-.629.837.837 0 0 0-.27-.628z" fill="#969696"/></symbol><symbol id="extra-places__location" viewBox="0 0 11 16"><path d="M5.5 0C8.564 0 11 2.48 11 5.6 11 9.76 5.5 16 5.5 16S0 9.76 0 5.6C0 2.48 2.436 0 5.5 0zm0 7.6c1.1 0 1.964-.88 1.964-2s-.864-2-1.964-2-1.964.88-1.964 2 .864 2 1.964 2z" fill="red" fill-rule="evenodd"/></symbol><symbol id="filter__by_list" viewBox="0 0 15 11"><g fill="#969696" fill-rule="evenodd"><path d="M15 2.143c-.025.083-.044.169-.076.248-.165.41-.448.608-.84.608L11.137 3h-5.2c-.474-.001-.81-.288-.913-.774-.12-.566.23-1.16.737-1.204.369-.032.741-.016 1.112-.016 2.35 0 4.699.007 7.048-.006.519-.003.92.177 1.079.863v.28zM15 6.18c-.04.109-.07.225-.122.326-.176.334-.438.494-.78.494-1.603-.002-3.206 0-4.81 0-1.136 0-2.273 0-3.41-.002-.39 0-.705-.26-.83-.671-.12-.395-.012-.83.273-1.098A.842.842 0 0 1 5.927 5h8.125c.489.001.78.251.93.795.003.015.012.027.018.041v.344zM15 10.18c-.033.095-.059.195-.102.284-.173.36-.44.536-.799.535h-3.245L6.006 11c-.192 0-.379-.009-.552-.12-.352-.226-.525-.68-.427-1.129.097-.442.443-.747.864-.749C6.878 9 7.865 9 8.851 9l5.079.001c.628 0 .85.173 1.07.835v.343zM0 9.305c.099-.232.164-.488.304-.691.394-.573 1.159-.766 1.794-.49.654.286 1.013.982.871 1.692A1.496 1.496 0 0 1 1.546 11 1.492 1.492 0 0 1 .03 9.797C.024 9.767.01 9.74 0 9.712v-.407zM0 1.305C.099 1.073.163.817.303.613.7.037 1.477-.156 2.11.133A1.497 1.497 0 1 1 1.514 3 1.492 1.492 0 0 1 .03 1.796C.024 1.767.01 1.74 0 1.711v-.406zM0 5.305c.096-.228.158-.48.294-.68.399-.586 1.174-.783 1.816-.493a1.502 1.502 0 0 1 .85 1.714A1.495 1.495 0 0 1 1.467 7 1.496 1.496 0 0 1 .032 5.812C.024 5.778.01 5.745 0 5.711v-.406z"/></g></symbol><symbol id="filter__by_plitka" viewBox="0 0 14 12"><path d="M6.134 6.874c.213.216.32.471.32.766v3.27c0 .295-.107.55-.32.766a1.027 1.027 0 0 1-.756.324H1.075c-.29 0-.543-.108-.756-.324A1.054 1.054 0 0 1 0 10.91V7.64c0-.295.107-.55.32-.766.213-.216.465-.324.756-.324h4.303c.291 0 .543.108.756.324zm0-6.54c.213.217.32.472.32.767v3.27c0 .295-.107.55-.32.766a1.027 1.027 0 0 1-.756.324H1.075c-.29 0-.543-.108-.756-.324A1.054 1.054 0 0 1 0 4.371V1.1C0 .806.107.551.32.335.532.119.784.01 1.075.01h4.303c.291 0 .543.108.756.324zm7.53 6.54c.213.216.32.471.32.766v3.27c0 .295-.107.55-.32.766a1.027 1.027 0 0 1-.757.324H8.605c-.292 0-.544-.108-.756-.324a1.053 1.053 0 0 1-.32-.766V7.64c0-.295.107-.55.32-.766.212-.216.464-.324.756-.324h4.302c.292 0 .544.108.757.324zm0-6.54c.213.217.32.472.32.767v3.27c0 .295-.107.55-.32.766a1.027 1.027 0 0 1-.757.324H8.605c-.292 0-.544-.108-.756-.324a1.053 1.053 0 0 1-.32-.766V1.1c0-.295.107-.55.32-.766.212-.216.464-.324.756-.324h4.302c.292 0 .544.108.757.324z" fill="#969696"/></symbol><symbol id="filter__on_map" viewBox="0 0 17 14"><path d="M3.012.353c.232.228.348.502.348.824 0 .437-.198.77-.593 1v11.52c0 .08-.03.148-.088.206a.288.288 0 0 1-.209.086h-.593a.287.287 0 0 1-.208-.086.277.277 0 0 1-.088-.205V2.178c-.396-.23-.594-.564-.594-1.001 0-.322.116-.596.348-.824.232-.227.511-.341.839-.341.327 0 .607.114.838.341zm13.812.997a.555.555 0 0 1 .176.41v6.942c0 .152-.039.269-.116.35-.077.082-.2.166-.366.25-1.328.704-2.468 1.056-3.42 1.056-.376 0-.758-.066-1.144-.2a6.338 6.338 0 0 1-1.005-.437 5.755 5.755 0 0 0-1.07-.437c-.43-.133-.87-.2-1.32-.2-1.187 0-2.62.443-4.3 1.329a.663.663 0 0 1-.306.082c-.16 0-.3-.058-.417-.173a.555.555 0 0 1-.176-.41V3.16c0-.194.095-.36.287-.5.13-.085.374-.215.732-.391C5.837 1.54 7.137 1.177 8.28 1.177a6.3 6.3 0 0 1 1.853.264c.575.176 1.251.443 2.03.8.234.116.506.173.815.173.334 0 .697-.063 1.09-.19.391-.128.731-.27 1.018-.428.287-.158.56-.3.816-.428.256-.128.424-.191.505-.191.16 0 .3.058.417.173z" fill="#A3A3A3"/></symbol><symbol id="filter__search_by_place" viewBox="0 0 18 18"><path stroke="#323232" d="M9 .5a8.5 8.5 0 1 0 0 17 8.5 8.5 0 0 0 0-17z" fill="none" fill-rule="evenodd"/><path d="M11.88 7.944l-2.623 2.94a.343.343 0 0 1-.263.125.342.342 0 0 1-.264-.125l-2.623-2.94a.429.429 0 0 1-.111-.295c0-.114.037-.212.11-.295a.342.342 0 0 1 .264-.125h5.247c.101 0 .19.041.263.125a.429.429 0 0 1 .112.295.429.429 0 0 1-.112.295z"/></symbol><symbol id="label__remove" viewBox="0 0 18 18"><path fill-rule="evenodd" clip-rule="evenodd" d="M9 18A9 9 0 1 0 9 0a9 9 0 0 0 0 18z" fill="#CDCDCD"/><path fill-rule="evenodd" clip-rule="evenodd" d="M9.656 9l3.208-3.208a.464.464 0 1 0-.655-.656L9 8.344 5.792 5.136a.463.463 0 1 0-.656.656L8.345 9l-3.21 3.208a.464.464 0 1 0 .657.656L9 9.656l3.209 3.208a.462.462 0 0 0 .655 0 .464.464 0 0 0 0-.656L9.656 9z" fill="#515151"/></symbol><symbol id="main-nav__places" viewBox="0 0 27 26"><path d="M2.842 0v23.892H0V26h27v-2.108h-2.841V10.54H14.21V0H2.842zM9 4h2V2H9v2zM6 4h2V2H6v2zm3 5h2V7H9v2zM6 9h2V7H6v2zm14 5h2v-2h-2v2zm-4 0h2v-2h-2v2zm-7 0h2v-2H9v2zm-3 0h2v-2H6v2zm14 5h2v-2h-2v2zm-4 0h2v-2h-2v2zm-7 0h2v-2H9v2zm-3 0h2v-2H6v2zm10 5h6v-2h-6v2zM6 24h6v-2H6v2z" fill="#DCDCDC" fill-rule="evenodd"/></symbol><symbol id="main-nav__sale" viewBox="0 0 26 26"><path d="M8.915 19.113c.512 0 .967.007 1.42-.007.075-.003.172-.08.212-.15.186-.314.355-.637.53-.958l5.116-9.456c.206-.382.408-.765.63-1.18-.524 0-1.003-.006-1.48.005-.061.002-.14.072-.175.13-.132.223-.25.454-.373.683L9.398 18.2c-.156.289-.307.581-.483.913m4.99-2.746c.016.679.204 1.488.924 2.047 1.038.808 2.21.868 3.382.395 1.883-.76 2.054-3.58.695-4.792-.62-.555-1.362-.712-2.164-.703-1.738.022-2.841 1.135-2.837 3.053m-5.037-3.21c.143-.01.314-.013.483-.035 1.038-.139 1.8-.657 2.205-1.641.208-.505.253-1.04.213-1.577-.083-1.118-.587-1.961-1.644-2.413-.534-.229-1.104-.264-1.674-.211-1.224.112-2.05.74-2.41 1.935-.29.96-.176 1.883.34 2.738.553.921 1.454 1.18 2.487 1.204m-6.796 6.497c.054-.684.11-1.477.184-2.27.021-.227-.02-.39-.198-.554-.595-.553-1.172-1.125-1.752-1.694-.359-.352-.399-.687-.137-1.113.443-.718.888-1.435 1.34-2.148a.4.4 0 0 0 .047-.382c-.276-.797-.541-1.597-.807-2.398-.161-.486-.031-.833.414-1.089.71-.408 1.42-.815 2.135-1.215.172-.097.272-.202.3-.421.109-.82.248-1.636.376-2.454.076-.488.372-.751.907-.772.82-.033 1.64-.057 2.46-.072.19-.003.31-.07.422-.223.485-.67.983-1.332 1.477-1.997.29-.39.675-.494 1.112-.289.763.358 1.524.72 2.283 1.09.145.07.263.074.41.003.75-.366 1.504-.723 2.26-1.08.483-.228.827-.143 1.147.287.5.67 1 1.34 1.491 2.017.096.133.2.186.362.19.804.017 1.608.043 2.412.069.656.022.91.26 1.008.912.122.818.25 1.636.39 2.45.016.09.113.19.198.24.722.421 1.45.831 2.175 1.246.48.274.613.622.437 1.146-.262.783-.525 1.566-.796 2.346a.415.415 0 0 0 .047.4c.435.685.861 1.375 1.29 2.063.323.515.287.832-.143 1.252-.588.572-1.182 1.139-1.763 1.719a.488.488 0 0 0-.129.333c.047.778.124 1.554.168 2.333.013.243.019.522-.085.728-.093.184-.322.353-.526.418-.816.267-1.645.494-2.472.726-.138.04-.216.1-.271.236-.312.765-.635 1.526-.953 2.288-.223.538-.528.708-1.089.596-.81-.162-1.622-.32-2.429-.496-.175-.039-.289.004-.417.108-.655.534-1.315 1.061-1.975 1.588-.38.302-.699.307-1.08.005-.654-.52-1.306-1.044-1.952-1.574a.507.507 0 0 0-.484-.12c-.783.174-1.572.32-2.358.483-.556.115-.878-.053-1.1-.58-.321-.761-.648-1.52-.963-2.284a.392.392 0 0 0-.29-.254c-.788-.217-1.573-.447-2.36-.675-.57-.166-.747-.415-.723-1.118" mask="url(#mask-2)"/><path d="M7.875 9.437c.133-.278.454-.436.915-.437.45-.001.743.157.898.423.421.722.414 1.45-.012 2.172-.154.262-.45.4-.878.405-.43.004-.758-.13-.888-.392-.177-.358-.277-.732-.41-1.098.13-.379.215-.734.375-1.073zM17.664 17.526c-.132.286-.445.468-.923.474-.495.006-.806-.177-.964-.47-.366-.682-.373-1.372.002-2.052.196-.355.507-.485.986-.478.472.008.783.153.94.515.136.322.195.66.295 1.014-.108.329-.187.67-.336.997z"/></symbol><symbol id="modals__close" viewBox="0 0 14 14"><g opacity=".4" fill="none"><mask id="a" maskUnits="userSpaceOnUse" x="0" y="0" width="14" height="14"><path fill-rule="evenodd" clip-rule="evenodd" d="M0 0h14v14H0V0z" fill="#fff"/></mask><g mask="url(#a)"><path fill-rule="evenodd" clip-rule="evenodd" d="M8.148 7l5.614-5.614A.811.811 0 1 0 12.615.238L7 5.853 1.386.238A.81.81 0 1 0 .238 1.386L5.853 7 .238 12.615a.811.811 0 1 0 1.148 1.147L7 8.147l5.615 5.615a.808.808 0 0 0 1.147 0 .811.811 0 0 0 0-1.147L8.148 7z" fill="#969696"/></g></g></symbol><symbol id="modals__fb" viewBox="0 0 14 14"><path fill-rule="evenodd" clip-rule="evenodd" d="M2.573 0C1.863 0 1.258.256.755.769A2.548 2.548 0 0 0 0 2.62v8.735c0 .722.252 1.34.755 1.852a2.455 2.455 0 0 0 1.818.769h4.752V8.563H5.538V6.452h1.787V4.896c0-.886.242-1.572.728-2.057.485-.485 1.132-.728 1.942-.728.685 0 1.215.027 1.59.082v1.884l-1.09.009c-.405 0-.677.085-.817.255-.14.17-.21.424-.21.764v1.347h2.046l-.268 2.11H9.468v5.415h1.68c.708 0 1.314-.256 1.817-.769.503-.513.755-1.13.755-1.852V2.621c0-.722-.252-1.34-.755-1.852A2.456 2.456 0 0 0 11.148 0H2.573z" fill="#BEBEBE"/></symbol><symbol id="modals__mail-icon" viewBox="0 0 19 13"><path fill-rule="evenodd" clip-rule="evenodd" d="M3.369 1.752c.119.117.182.184.25.246 1.73 1.58 3.459 3.16 5.191 4.737.58.527 1.194.524 1.784-.006C12.347 5.154 14.098 3.578 15.848 2c.074-.067.14-.142.245-.249H3.37zm-1.447.87c-.009.17-.018.26-.018.348 0 2.437-.002 4.874.001 7.312 0 .747.265.98 1.101.98 4.33.002 8.658.002 12.986 0 .85 0 1.103-.233 1.103-1.014.002-2.414.001-4.829 0-7.243 0-.104-.015-.208-.022-.312l-.09-.038c-.092.104-.176.215-.278.31-1.926 1.802-3.853 3.601-5.781 5.4-.79.736-1.612.747-2.425.032l-6.066-5.33-.511-.445zM19 1.219V11.78c-.05.088-.097.177-.15.264-.349.586-.853.955-1.618.955H1.768c-.765 0-1.27-.368-1.619-.955-.052-.087-.1-.176-.149-.264V1.22C.05 1.13.097 1.04.148.954.496.364 1.003 0 1.768 0h15.464c.765 0 1.272.366 1.62.954.05.087.099.177.148.265z" fill="#B5B5B5"/></symbol><symbol id="modals__vk" viewBox="0 0 20 10"><path fill-rule="evenodd" clip-rule="evenodd" d="M19.568.63c-.04-.055-.146-.105-.317-.151a1.805 1.805 0 0 0-.655-.023L15.65.474a.926.926 0 0 0-.338.032L15.26.53l-.041.027a.44.44 0 0 0-.113.096.61.61 0 0 0-.102.16c-.321.733-.686 1.416-1.095 2.047-.253.376-.485.702-.696.978-.212.276-.39.479-.533.61-.143.13-.272.235-.388.313-.116.08-.205.113-.267.1a6.613 6.613 0 0 1-.173-.036.636.636 0 0 1-.23-.223.92.92 0 0 1-.118-.355 3.41 3.41 0 0 1-.036-.368 6.548 6.548 0 0 1 .005-.437c.007-.188.01-.315.01-.382 0-.23.005-.481.015-.751l.026-.642c.007-.157.01-.324.01-.5s-.012-.314-.036-.414a1.32 1.32 0 0 0-.107-.291.51.51 0 0 0-.21-.219 1.274 1.274 0 0 0-.343-.122C10.477.047 10.016.007 9.457 0 8.187-.01 7.372.062 7.01.22a1.371 1.371 0 0 0-.39.273c-.122.133-.14.206-.05.218.409.055.699.185.87.391l.06.11c.049.078.096.218.144.418.048.2.079.422.092.664.034.443.034.822 0 1.138-.034.315-.066.561-.097.737-.03.176-.077.318-.138.428-.061.109-.102.176-.123.2a.166.166 0 0 1-.051.045.845.845 0 0 1-.276.046c-.096 0-.212-.043-.348-.128a2.358 2.358 0 0 1-.425-.35 4.708 4.708 0 0 1-.497-.623 10.519 10.519 0 0 1-.573-.947l-.163-.264c-.103-.17-.243-.417-.42-.741a13.487 13.487 0 0 1-.47-.942.615.615 0 0 0-.246-.291L3.858.575a.733.733 0 0 0-.163-.078 1.21 1.21 0 0 0-.236-.059L.655.456C.368.456.174.514.072.63L.03.684A.267.267 0 0 0 0 .829c0 .067.02.15.061.246.41.855.855 1.68 1.336 2.475.481.795.899 1.435 1.254 1.92.354.486.716.943 1.085 1.374.368.43.612.707.731.828.12.122.214.213.282.273l.256.219c.163.145.404.32.721.523.317.203.669.403 1.054.6.386.198.834.358 1.346.483a5.2 5.2 0 0 0 1.494.15h1.177c.24-.018.42-.085.543-.2l.04-.046a.58.58 0 0 0 .077-.168.83.83 0 0 0 .036-.25c-.007-.261.016-.496.067-.706.051-.209.109-.367.174-.473.065-.106.138-.196.22-.268a.878.878 0 0 1 .174-.132.74.74 0 0 1 .082-.032c.163-.049.356-.002.578.14.222.144.43.32.624.529.195.209.428.444.701.705.273.26.512.455.717.582l.204.11c.137.072.314.14.533.2.218.06.41.075.573.045l2.62-.036c.26 0 .46-.038.604-.114.143-.076.228-.16.256-.25a.629.629 0 0 0 .005-.31 1.026 1.026 0 0 0-.072-.24 1.272 1.272 0 0 0-.067-.114c-.34-.546-.992-1.217-1.954-2.011l-.02-.019-.011-.009-.01-.009h-.01c-.437-.37-.714-.619-.83-.746-.211-.243-.259-.488-.143-.737.082-.188.39-.585.921-1.192.28-.322.502-.58.666-.774C19.275 2 19.787 1.108 19.63.72l-.062-.09z" fill="#BEBEBE"/></symbol><symbol id="page-header__avatar-admin" viewBox="0 0 26 26"><title>admin_icon</title><g fill="none" fill-rule="evenodd"><mask id="b" fill="#fff"><use xlink:href="#a"/></mask><use fill="#FFF" xlink:href="#a"/><path stroke="#F00" d="M13-.5c7.456 0 13.5 6.044 13.5 13.5S20.456 26.5 13 26.5-.5 20.456-.5 13 5.544-.5 13-.5z"/><g mask="url(#b)"><g transform="translate(6 6)"><mask id="d" fill="#fff"><use xlink:href="#c"/></mask><path d="M6.985 6.905a2.777 2.777 0 0 1-2.767-2.782c-.006-1.48 1.28-2.726 2.8-2.716 1.532.01 2.776 1.258 2.771 2.782-.005 1.486-1.277 2.718-2.804 2.716m5.888 3.177c-.825-1.087-1.925-1.791-3.189-2.272-.1-.039-.224-.042-.29-.134a.187.187 0 0 1 .082-.116c1.265-.976 1.884-2.24 1.722-3.84-.134-1.331-.791-2.354-1.911-3.091C8.682.23 8.003.053 7.287 0h-.19c-.062.047-.125.047-.188 0h-.251c-.042.041-.096.03-.147.032-1.004.05-1.84.49-2.522 1.177a4.147 4.147 0 0 0-.551 5.201c.329.507.758.913 1.26 1.271-.084.036-.145.052-.204.074-1.646.608-3.02 1.552-3.872 3.123A5.034 5.034 0 0 0 0 13.135c-.016.495.203.769.64.833l.294-.001c.418-.102.558-.267.589-.72.077-1.132.538-2.104 1.393-2.835C4.747 8.847 6.845 8.428 9.13 9.24c1.88.67 3.153 1.897 3.342 3.982.039.422.216.704.659.778h.062c.043-.041.097-.029.148-.032.398-.027.673-.321.66-.716a5.442 5.442 0 0 0-1.127-3.17" fill="#F00" mask="url(#d)"/></g></g></g></symbol><symbol id="page-header__location" viewBox="0 0 11 16"><path d="M5.5 0C8.564 0 11 2.48 11 5.6 11 9.76 5.5 16 5.5 16S0 9.76 0 5.6C0 2.48 2.436 0 5.5 0zm0 7.6c1.1 0 1.964-.88 1.964-2s-.864-2-1.964-2-1.964.88-1.964 2 .864 2 1.964 2z" fill="#B6B6B6"/></symbol><symbol id="page-header__login-dropdown" viewBox="0 0 12 7"><path d="M11.317 0c.204 0 .383.048.524.192.215.217.212.511-.01.754l-2.877 3.15c-.717.784-1.436 1.568-2.152 2.354-.488.537-1.114.544-1.601.012C3.537 4.64 1.876 2.817.211.997.031.802-.068.597.051.348.175.092.404 0 .692 0 2.466.003 4.24.001 6.014.001h5.303z" fill="#A1A1A1" mask="url(#mask-2)"/></symbol><symbol id="page-header__log_in" viewBox="0 0 26 26"><title>regist_icon</title><g transform="matrix(-1 0 0 1 26 0)" fill="none" fill-rule="evenodd"><circle stroke="#B6B6B6" cx="13" cy="13" r="13"/><path d="M15.587 10.563c.76-.756.582-.747 1.373.004.291.278.285.475-.006.739-.384.349-.739.73-1.187 1.178h.554c1.566 0 3.131-.006 4.696.002 1.04.005.985-.174.982.999-.002.547-.026.57-.595.57h-5.127c-.133 0-.266.014-.4.021l-.06.113c.266.238.544.464.797.717.793.792.783.595-.022 1.43-.229.236-.405.251-.644.009-.985-1.003-1.983-1.994-2.976-2.99v-.172c.872-.873 1.74-1.75 2.615-2.62" fill="#B6B6B6"/><g transform="translate(8 7)"><mask id="b" fill="#fff"><use xlink:href="#a"/></mask><path d="M7.154 10.846H1.423v-9.21h.526c1.754 0 3.508.001 5.262-.004.15 0 .421-.024.43-.076.064-.376.114-.766.077-1.142-.01-.101-.332-.24-.512-.242C5.002.156 2.797.161.593.162.035.162.001.203.001.82v10.853c0 .604.037.646.602.646 2.127.002 4.254 0 6.38 0 .787 0 .787 0 .78-.848-.004-.607-.019-.624-.61-.625" fill="#B6B6B6" mask="url(#b)"/></g></g></symbol><symbol id="page-header__log_out" viewBox="0 0 14 13"><title>log_out_icon</title><g fill="none" fill-rule="evenodd"><path d="M11.08 2.869c-.848-.845-.65-.834-1.532.005-.325.309-.319.53.006.824.429.39.825.816 1.325 1.315h-.618c-1.748 0-3.496-.006-5.244.003-1.161.005-1.099-.194-1.095 1.115.001.611.029.636.663.636 1.908 0 3.817 0 5.725.002.149 0 .297.014.446.022l.068.126c-.297.266-.608.519-.89.8-.886.885-.874.665.025 1.597.255.264.452.281.718.01 1.1-1.12 2.214-2.226 3.323-3.337v-.193c-.973-.975-1.943-1.953-2.92-2.925" fill="#B6B6B6"/><mask id="b" fill="#fff"><use xlink:href="#a"/></mask><path d="M7.154 10.846H1.423v-9.21h.526c1.754 0 3.508.001 5.262-.004.15 0 .421-.024.43-.076.064-.376.114-.766.077-1.142-.01-.101-.332-.24-.512-.242C5.002.156 2.797.161.593.162.035.162.001.203.001.82v10.853c0 .604.037.646.602.646 2.127.002 4.254 0 6.38 0 .787 0 .787 0 .78-.848-.004-.607-.019-.624-.61-.625" fill="#B6B6B6" mask="url(#b)"/></g></symbol><symbol id="page-header__submit-icon" viewBox="0 0 14 14"><path d="M8.826 8.826C9.608 8.043 10 7.102 10 6c0-1.1-.392-2.043-1.174-2.826C8.043 2.392 7.1 2 6 2c-1.102 0-2.043.392-2.826 1.174C2.392 3.957 2 4.9 2 6c0 1.102.392 2.043 1.174 2.826C3.957 9.608 4.898 10 6 10c1.1 0 2.043-.392 2.826-1.174M14 12.923c0 .291-.107.544-.32.757-.213.213-.466.32-.757.32a1 1 0 0 1-.757-.32L9.28 10.802a5.756 5.756 0 0 1-3.357 1.044 5.81 5.81 0 0 1-2.301-.467 5.924 5.924 0 0 1-1.893-1.262A5.924 5.924 0 0 1 .467 8.224 5.81 5.81 0 0 1 0 5.922c0-.801.155-1.568.467-2.3A5.924 5.924 0 0 1 1.73 1.729c.53-.53 1.161-.95 1.893-1.262A5.81 5.81 0 0 1 5.923 0a5.81 5.81 0 0 1 2.301.467 5.924 5.924 0 0 1 1.893 1.262c.53.53.95 1.161 1.262 1.893a5.81 5.81 0 0 1 .467 2.3 5.76 5.76 0 0 1-1.044 3.358l2.886 2.886c.207.207.312.46.312.757" mask="url(#mask-2)"/></symbol><symbol id="popular-places__fire-icon" viewBox="0 0 14 15"><mask id="a" maskUnits="userSpaceOnUse" x="0" y="0" width="14" height="15"><path fill-rule="evenodd" clip-rule="evenodd" d="M0 0h14v15H0V0z" fill="#fff"/></mask><path fill-rule="evenodd" clip-rule="evenodd" d="M9.07 14.838c.11-.204.225-.405.335-.61.247-.454.378-.945.457-1.451a8.05 8.05 0 0 0 .117-1.349c-.01-.789-.22-1.532-.545-2.244a9.553 9.553 0 0 0-1.897-2.761c-.076-.077-.162-.144-.243-.215.003.12.028.226.042.334.05.397-.018.784-.128 1.163-.198.68-.52 1.3-.893 1.897-.113.182-.235.358-.362.535.073-.76.044-1.495-.432-2.136-.025.03-.025.056-.024.082.01.38-.014.755-.143 1.117a1.52 1.52 0 0 1-.527.728c-.694.513-1.067 1.224-1.29 2.034-.116.42-.202.844-.183 1.282.027.648.22 1.232.669 1.716a1.454 1.454 0 0 1-.33-.114c-.884-.402-1.696-.915-2.384-1.609-.528-.53-.934-1.139-1.151-1.862A3.8 3.8 0 0 1 .02 9.899c.098-1.006.427-1.943.84-2.856.348-.773.77-1.507 1.198-2.238.116-.198.219-.403.328-.605.023-.041.05-.08.074-.121a.142.142 0 0 1 .035.1c-.015.204-.028.408-.052.61a5.97 5.97 0 0 0-.02 1.078c.026.41.07.819.165 1.22.015.065.04.128.068.21.081-.06.149-.104.21-.156.44-.375.836-.795 1.215-1.23.407-.47.798-.952 1.11-1.49.472-.809.712-1.677.658-2.618a4.714 4.714 0 0 0-.418-1.66C5.41.1 5.406.048 5.394 0c.052.002.106-.005.154.008.533.146 1 .418 1.435.75.717.547 1.31 1.212 1.84 1.937.715.98 1.308 2.026 1.73 3.166.015.044.037.086.061.142.124-.181.188-.368.23-.563a2.86 2.86 0 0 0-.026-1.284c-.092-.38-.22-.752-.332-1.128-.022-.071-.044-.142-.062-.213-.008-.036-.008-.074-.011-.111.068.012.12.035.161.072.16.142.32.286.475.434.353.335.72.658 1.027 1.04a7.54 7.54 0 0 1 1.388 2.737 7.6 7.6 0 0 1 .28 1.733c0 .025.008.05.011.075v.536c-.004.04-.012.08-.014.12a5.662 5.662 0 0 1-.24 1.398c-.276.873-.77 1.61-1.42 2.246-.819.8-1.78 1.383-2.837 1.812L9.021 15a.436.436 0 0 1 .048-.162z" fill="#F00"/></symbol><symbol id="profile-main__reset-icon" viewBox="0 0 16 16"><g opacity=".458" fill="none"><path fill-rule="evenodd" clip-rule="evenodd" d="M8 15A7 7 0 1 0 8 1a7 7 0 0 0 0 14z" fill="#D8D8D8"/><path d="M8 15A7 7 0 1 0 8 1a7 7 0 0 0 0 14z" stroke="#979797"/><g stroke="#979797" stroke-linecap="square"><path d="M5.5 5.6l5 4.8M10.5 5.6l-5 4.8"/></g></g></symbol><symbol id="rating__star-empty" viewBox="0 0 17 17"><path fill-rule="evenodd" clip-rule="evenodd" d="M16.428 6.095l-5.129-.782L9.001.44C8.87.146 8.704 0 8.5 0c-.204 0-.371.146-.5.44L5.7 5.312l-5.128.782C.191 6.159 0 6.324 0 6.588c0 .15.085.321.255.514l3.72 3.792-.88 5.356c-.013.1-.02.171-.02.214 0 .15.036.277.107.38.072.104.18.156.322.156a.837.837 0 0 0 .409-.129L8.5 14.343l4.587 2.528c.143.086.28.129.409.129.136 0 .24-.052.311-.155a.653.653 0 0 0 .108-.38c0-.093-.004-.165-.01-.215l-.88-5.356 3.71-3.792c.176-.186.265-.357.265-.514 0-.264-.19-.429-.572-.493z" fill="#DCDCDC"/></symbol><symbol id="rating__star-fill" viewBox="0 0 17 17"><path fill-rule="evenodd" clip-rule="evenodd" d="M16.428 6.095l-5.129-.782L9.001.44C8.87.146 8.704 0 8.5 0c-.204 0-.371.146-.5.44L5.7 5.312l-5.128.782C.191 6.159 0 6.324 0 6.588c0 .15.085.321.255.514l3.72 3.792-.88 5.356c-.013.1-.02.171-.02.214 0 .15.036.277.107.38.072.104.18.156.322.156a.839.839 0 0 0 .409-.129L8.5 14.343l4.587 2.528a.798.798 0 0 0 .409.129c.136 0 .24-.052.311-.155a.653.653 0 0 0 .108-.38c0-.093-.004-.165-.01-.215l-.88-5.356 3.71-3.792c.176-.186.265-.357.265-.514 0-.264-.19-.429-.572-.493z" fill="#FFD200"/></symbol><symbol id="socials__fb" viewBox="0 0 26 26"><path d="M16.203 12.843a.203.203 0 0 1-.203.203h-1.773a.203.203 0 0 0-.203.204v7.713a.203.203 0 0 1-.203.203h-2.732a.203.203 0 0 1-.203-.203V13.25a.203.203 0 0 0-.203-.204h-.95a.203.203 0 0 1-.204-.203V10.75c0-.112.091-.203.204-.203h1.153v-.127c0-1.54.465-2.83 1.308-3.633.706-.668 1.734-1.05 2.82-1.05l.074.002h.7c.111 0 .202.09.202.203v2.235a.203.203 0 0 1-.203.203h-.618c-.953.13-1.166 1.117-1.166 1.958v.209H16c.112 0 .203.09.203.203v2.094zM13.063 0C5.887-.02.037 5.75 0 12.883-.035 20.112 5.75 25.979 12.933 26c7.172.021 13.03-5.755 13.067-12.886C26.037 5.89 20.249.021 13.064 0z"/></symbol><symbol id="socials__inst" viewBox="0 0 26 26"><path d="M19.315 16.757c-.022 1.583-.95 2.543-2.512 2.557-2.538.021-5.077.021-7.615 0-1.56-.014-2.494-.974-2.505-2.561a523.327 523.327 0 0 1 0-7.513c.012-1.63.954-2.548 2.61-2.558 2.471-.014 4.942-.015 7.412 0 1.683.01 2.596.953 2.612 2.664.012 1.218.002 2.436.002 3.655 0 1.252.014 2.504-.004 3.756M13.126.002C5.896-.041.026 5.738 0 12.922-.025 20.1 5.738 25.955 12.87 26c7.221.045 13.103-5.744 13.13-12.924C26.024 5.904 20.254.043 13.125.002"/><path d="M12.999 15c1.098 0 2.027-.95 2-2.044-.025-1.057-.945-1.956-2-1.956-1.092 0-2.026.956-1.998 2.047.026 1.066.934 1.954 1.998 1.953"/><path d="M16.313 12c-.147.135.026.452.052.68.154 1.375-.35 2.478-1.539 3.23-1.195.756-2.454.758-3.65.004-1.191-.75-1.693-1.853-1.545-3.228.024-.224.209-.55.055-.686H8.153c-.1.1-.16.278-.152.589.038 1.35-.003 2.704.013 4.055.011.948.414 1.335 1.397 1.348 1.195.016 2.39.004 3.586.003 1.228 0 2.457.005 3.685-.002.846-.005 1.297-.426 1.304-1.249.01-1.384-.028-2.769.013-4.152.01-.313-.052-.492-.153-.592h-1.533zM15.4 10h1.2c.22 0 .4-.163.4-.364V8.364c0-.201-.18-.364-.4-.364h-1.2c-.22 0-.4.163-.4.364v1.272c0 .201.18.364.4.364"/></symbol><symbol id="socials__vk" viewBox="0 0 26 26"><path d="M17.92 14.894c.211.228.448.433.66.66.418.45.839.897 1.234 1.366.14.167.24.384.305.595.1.324-.094.609-.434.622-.847.033-1.696.07-2.542.04-.27-.01-.57-.18-.788-.359-.364-.3-.67-.669-1.005-1.004-.175-.175-.35-.356-.546-.505-.237-.18-.412-.143-.6.09-.208.261-.274.573-.288.895-.035.757-.115.83-.872.886-1.992.147-3.528-.707-4.756-2.188-1.34-1.616-2.326-3.45-3.16-5.368-.194-.444-.067-.657.415-.67.715-.018 1.431-.02 2.147-.014.318.002.492.214.622.486.317.666.628 1.337.981 1.984.21.385.492.732.755 1.087.07.095.184.17.293.223.181.087.348.045.418-.155.069-.196.124-.401.152-.606a6.546 6.546 0 0 0-.03-1.997c-.065-.382-.278-.632-.67-.71-.059-.012-.114-.04-.195-.068.13-.327.378-.462.656-.512a7.446 7.446 0 0 1 2.665-.01c.415.076.575.292.576.722.001.817-.007 1.634-.01 2.451 0 .125 0 .25.012.374.021.205.065.416.28.5.208.08.333-.087.453-.215.656-.701 1.11-1.533 1.524-2.39.12-.251.227-.51.337-.767.1-.236.255-.376.53-.376.894 0 1.79-.019 2.684-.012.33.002.516.245.403.55-.135.37-.29.743-.508 1.067-.462.69-.972 1.35-1.46 2.023-.114.158-.23.315-.327.483-.19.323-.167.547.089.822M13.127 0C5.897-.042.025 5.737 0 12.922-.025 20.098 5.74 25.955 12.87 26c7.222.045 13.104-5.745 13.13-12.924C26.026 5.903 20.256.042 13.127 0"/></symbol><symbol id="tag-panel__coupon-sold-icon" viewBox="0 0 26 26"><title>sale_gery_icon</title><g fill="none" fill-rule="evenodd"><mask id="b" fill="#fff"><use xlink:href="#a"/></mask><path d="M8.915 19.113c.512 0 .967.007 1.42-.007.075-.003.172-.08.212-.15.186-.314.355-.637.53-.958l5.116-9.456c.206-.382.408-.765.63-1.18-.524 0-1.003-.006-1.48.005-.061.002-.14.072-.175.13-.132.223-.25.454-.373.683L9.398 18.2c-.156.289-.307.581-.483.913m4.99-2.746c.016.679.204 1.488.924 2.047 1.038.808 2.21.868 3.382.395 1.883-.76 2.054-3.58.695-4.792-.62-.555-1.362-.712-2.164-.703-1.738.022-2.841 1.135-2.837 3.053m-5.037-3.21c.143-.01.314-.013.483-.035 1.038-.139 1.8-.657 2.205-1.641.208-.505.253-1.04.213-1.577-.083-1.118-.587-1.961-1.644-2.413-.534-.229-1.104-.264-1.674-.211-1.224.112-2.05.74-2.41 1.935-.29.96-.176 1.883.34 2.738.553.921 1.454 1.18 2.487 1.204m-6.796 6.497c.054-.684.11-1.477.184-2.27.021-.227-.02-.39-.198-.554-.595-.553-1.172-1.125-1.752-1.694-.359-.352-.399-.687-.137-1.113.443-.718.888-1.435 1.34-2.148a.4.4 0 0 0 .047-.382c-.276-.797-.541-1.597-.807-2.398-.161-.486-.031-.833.414-1.089.71-.408 1.42-.815 2.135-1.215.172-.097.272-.202.3-.421.109-.82.248-1.636.376-2.454.076-.488.372-.751.907-.772.82-.033 1.64-.057 2.46-.072.19-.003.31-.07.422-.223.485-.67.983-1.332 1.477-1.997.29-.39.675-.494 1.112-.289.763.358 1.524.72 2.283 1.09.145.07.263.074.41.003.75-.366 1.504-.723 2.26-1.08.483-.228.827-.143 1.147.287.5.67 1 1.34 1.491 2.017.096.133.2.186.362.19.804.017 1.608.043 2.412.069.656.022.91.26 1.008.912.122.818.25 1.636.39 2.45.016.09.113.19.198.24.722.421 1.45.831 2.175 1.246.48.274.613.622.437 1.146-.262.783-.525 1.566-.796 2.346a.415.415 0 0 0 .047.4c.435.685.861 1.375 1.29 2.063.323.515.287.832-.143 1.252-.588.572-1.182 1.139-1.763 1.719a.488.488 0 0 0-.129.333c.047.778.124 1.554.168 2.333.013.243.019.522-.085.728-.093.184-.322.353-.526.418-.816.267-1.645.494-2.472.726-.138.04-.216.1-.271.236-.312.765-.635 1.526-.953 2.288-.223.538-.528.708-1.089.596-.81-.162-1.622-.32-2.429-.496-.175-.039-.289.004-.417.108-.655.534-1.315 1.061-1.975 1.588-.38.302-.699.307-1.08.005-.654-.52-1.306-1.044-1.952-1.574a.507.507 0 0 0-.484-.12c-.783.174-1.572.32-2.358.483-.556.115-.878-.053-1.1-.58-.321-.761-.648-1.52-.963-2.284a.392.392 0 0 0-.29-.254c-.788-.217-1.573-.447-2.36-.675-.57-.166-.747-.415-.723-1.118" fill="#C7C5C5" mask="url(#b)"/><path d="M7.875 9.437c.133-.278.454-.436.915-.437.45-.001.743.157.898.423.421.722.414 1.45-.012 2.172-.154.262-.45.4-.878.405-.43.004-.758-.13-.888-.392-.177-.358-.277-.732-.41-1.098.13-.379.215-.734.375-1.073zM17.664 17.526c-.132.286-.445.468-.923.474-.495.006-.806-.177-.964-.47-.366-.682-.373-1.372.002-2.052.196-.355.507-.485.986-.478.472.008.783.153.94.515.136.322.195.66.295 1.014-.108.329-.187.67-.336.997z" fill="#C7C5C5"/></g></symbol><symbol id="tag-panel__favorite-icon" viewBox="0 0 16 14"><path fill-rule="evenodd" clip-rule="evenodd" d="M8 13.977a.528.528 0 0 1-.392-.163L2.036 8.336a2.854 2.854 0 0 1-.245-.237 9.291 9.291 0 0 1-.496-.596 7.844 7.844 0 0 1-.607-.887 5.566 5.566 0 0 1-.479-1.102C.07 5.084 0 4.664 0 4.26c0-1.336.377-2.378 1.135-3.13C1.889.375 2.935 0 4.268 0c.37 0 .745.067 1.13.196.383.131.74.307 1.071.528.33.222.615.43.852.624.238.194.464.4.679.618a8.21 8.21 0 0 1 .679-.618c.237-.194.522-.402.852-.624.33-.221.688-.397 1.072-.528.384-.13.76-.196 1.129-.196 1.333 0 2.379.376 3.133 1.13C15.621 1.881 16 2.923 16 4.26c0 1.34-.681 2.704-2.045 4.094l-5.563 5.46a.528.528 0 0 1-.392.163z"/></symbol><symbol id="top-panel-edit__save" viewBox="0 0 14 14"><g transform="translate(3578 606)"><clipPath id="a" clip-rule="evenodd"><path d="M-4299-951h1400v2201h-1400V-951z"/></clipPath><g clip-path="url(#a)"><use xlink:href="#b" transform="translate(-4299 -951)"/><use xlink:href="#c" transform="translate(-3996 -623)"/><use xlink:href="#d" transform="translate(-3598.27 -1630)" fill-opacity=".01"/><use xlink:href="#e" transform="translate(-3598.27 -1618)"/><use xlink:href="#f" transform="translate(-3578 -606)"/></g></g></symbol><symbol id="top-panel__rss" viewBox="0 0 14 15"><path d="M13.827 12.976c-.03.532-.462.979-.98 1.019-.591.046-1.103-.307-1.195-.868-.06-.361-.045-.735-.08-1.102-.324-3.355-1.891-5.985-4.665-7.88-1.711-1.168-3.627-1.73-5.7-1.757C.449 2.378-.04 1.885.003 1.186.035.648.47.166 1.01.182 1.802.206 2.607.23 3.382.38c3.943.758 6.9 2.918 8.884 6.4.806 1.417 1.286 2.951 1.473 4.573.046.395.073.792.109 1.188-.02.146-.012.291-.02.435z" mask="url(#mask-2)"/><path d="M1.463.212c2.97.236 5.181 1.633 6.557 4.295.538 1.04.769 2.162.788 3.33.01.619-.449 1.124-1.044 1.16-.633.04-1.152-.376-1.203-1.008-.057-.709-.114-1.413-.394-2.076C5.362 4.01 3.945 2.87 1.903 2.525c-.297-.05-.603-.047-.903-.083-.638-.077-1.045-.588-.995-1.238C.05.628.565.182 1.175.194c.097.003.192.012.288.018" mask="url(#mask-4)" transform="translate(0 5)"/><path d="M1.502 11c.816.005 1.502.693 1.498 1.503-.003.814-.693 1.5-1.504 1.497-.816-.003-1.5-.69-1.496-1.503.005-.817.691-1.502 1.502-1.497"/></symbol><symbol id="top-panel__star" viewBox="0 0 16 15"><path d="M11.625 13.166L8 11.286l-3.635 1.88.702-3.979L2.125 6.38l4.058-.586L8 2.184l1.817 3.61 4.058.586-2.942 2.807.692 3.98zm3.836-7.788l-4.827-.69-2.163-4.3C8.35.128 8.192 0 8 0c-.192 0-.35.13-.471.387L5.365 4.688l-4.827.69C.18 5.435 0 5.58 0 5.813c0 .132.08.283.24.454l3.5 3.346-.827 4.725a1.52 1.52 0 0 0-.019.19c0 .132.034.243.101.335.067.091.169.137.303.137a.827.827 0 0 0 .385-.114L8 12.656l4.317 2.23a.787.787 0 0 0 .385.114c.262 0 .394-.158.394-.473 0-.082-.003-.145-.01-.189l-.827-4.725 3.49-3.346c.167-.164.251-.316.251-.454 0-.233-.18-.378-.539-.435z"/></symbol></svg>